<?xml version="1.0" encoding="UTF-8"?>
<svg width="112px" height="112px" viewBox="0 0 112 112" version="1.1" xmlns="http://www.w3.org/2000/svg" xmlns:xlink="http://www.w3.org/1999/xlink">
    <!-- Generator: Sketch 50 (54983) - http://www.bohemiancoding.com/sketch -->
    <title>logo-sign-circle copy</title>
    <desc>Created with Sketch.</desc>
    <defs>
        <linearGradient x1="82.2543835%" y1="86.33584%" x2="15.2852197%" y2="14.7013942%" id="linearGradient-1">
            <stop stop-color="#38427B" offset="0%"></stop>
            <stop stop-color="#222A67" offset="100%"></stop>
        </linearGradient>
    </defs>
    <g id="Page-1" stroke="none" stroke-width="1" fill="none" fill-rule="evenodd">
        <g id="Website-1-Copy" transform="translate(-400.000000, -2728.000000)" fill="url(#linearGradient-1)">
            <g id="txt" transform="translate(400.000000, 2720.000000)">
                <g id="logo-sign-circle-copy" transform="translate(0.000000, 8.000000)">
                    <path d="M56,112 C25.072054,112 0,86.927946 0,56 C0,25.072054 25.072054,0 56,0 C86.927946,0 112,25.072054 112,56 C112,86.927946 86.927946,112 56,112 Z M102,33.4424552 L101.817978,30.3734015 L100.92809,32.9309463 L95.9123596,37.370844 L90.1685393,38.2710997 L88.4494382,36.5933504 L93.4651685,29.5549872 L98.6426966,28 L93.0606742,28.1227621 L84.9505618,34.0767263 L77.3460674,33.5242967 L77.2853933,33.3401535 L66.647191,28 L60.3370787,29.2685422 L40.658427,45.8414322 L31.1932584,48.9309463 L27.2898876,52.9616368 L20.2921348,53.0434783 L16.8539326,59.5498721 L12,60.9616368 L16.5910112,61.6163683 L20.858427,55.7851662 L27.4314607,57.1764706 L27.3303371,63.3964194 L24.0337079,72.3785166 L22.152809,80.685422 L20.1303371,84 L25.2674157,82.8542199 L24.6808989,79.4578005 L29.0292135,70.3324808 L37.4629213,66.915601 L40.7191011,61.4526854 L46.2202247,57.3810742 L57.1213483,59.0179028 L68.1438202,54.1278772 L66.2629213,61.8414322 L61.3685393,62.2915601 L59.9730337,68.6547315 L64.1797753,65.8107417 L71.0966292,62.7621483 L76.5370787,54.168798 L76.8606742,50.0767263 L79.7932584,53.1457801 L88.2674157,58.5063939 L93.0606742,56.2148338 L92.7775281,44.8184143 L91.4022472,40.4194373 L97.6921348,38.8235294 L102,33.4424552 Z" id="Combined-Shape"></path>
                </g>
            </g>
        </g>
    </g>
</svg>