<svg height="29" viewBox="0 0 188 29" width="188" xmlns="http://www.w3.org/2000/svg"><g fill="#505995" transform=""><path d="m4.1 8.9h3c1.9 0 3-1.1 3-2.6 0-1.7-1.2-2.6-3.1-2.6h-2.9-3.8v-3.4h7c4.1 0 6.6 2.4 6.6 5.9 0 4-3.1 6-6.9 6h-2.9v5.1h-3.8v-8.3z"/><path d="m22.1 8.9c0-4.9 3.8-8.9 9.1-8.9s9.1 3.9 9.1 8.8-3.8 8.9-9.1 8.9-9.1-3.9-9.1-8.8zm14.2 0c0-3-2.2-5.4-5.2-5.4s-5.1 2.4-5.1 5.3 2.2 5.4 5.2 5.4 5.1-2.3 5.1-5.3z"/><path d="m51 .3h3.8v13.7h8.6v3.4h-12.4z"/><path d="m77.1 10.7-6.6-10.4h4.4l4.1 6.9 4.2-6.9h4.3l-6.6 10.3v6.8h-3.8z"/><path d="m97.2.3h4.1l4.5 7.3 4.5-7.3h4.1v17.2h-3.7v-11.3l-4.8 7.3h-.1l-4.8-7.3v11.1h-3.7v-17z"/><path d="m135.5 10.3-2.3-5.6-2.3 5.6-1.3 3.3-1.6 3.8h-3.8l7.4-17.3h3.5l7.4 17.3h-3.9l-1.6-3.8z"/><path d="m154.2 3.8h-5.2v-3.5h14.2v3.5h-5.2v13.7h-3.8z"/><path d="m173.2.3h3.8v6.8h7v-6.8h3.8v17.2h-3.8v-6.9h-7v6.9h-3.8z"/><g transform="translate(0 23)"><path d="m2.5 1v4.3h-.9v-4.3h-1.6v-.8h4.1v.8z"/><path d="m10.5 5.3v-2.1h-2.7v2.1h-.9v-5.1h.9v2.2h2.7v-2.2h.9v5.1z"/><path d="m15.7 1v1.4h2.5v.8h-2.5v1.4h2.8v.8h-3.7v-5.1h3.6v.7z"/><path d="m28.4.4c.3.1.6.2.8.4l-.4.8c-.3-.2-.5-.3-.8-.4s-.5-.1-.7-.1c-.3 0-.5 0-.6.1s-.2.2-.2.4c0 .1 0 .3.1.4s.2.2.4.2c.1.1.3.1.6.2s.6.2.8.3.4.2.6.4.2.4.2.8c0 .3-.1.6-.2.8-.2.2-.4.4-.7.5s-.6.2-1 .2-.8-.1-1.1-.2-.7-.3-.9-.6l.4-.7c.3.2.5.4.8.5s.6.2.9.2.5-.1.7-.2.2-.3.2-.5 0-.3-.1-.4-.2-.2-.4-.2c-.1-.1-.3-.1-.6-.2s-.6-.2-.8-.3-.4-.2-.5-.4c-.2-.2-.2-.4-.2-.7s.1-.5.2-.7.4-.4.6-.5.6-.2 1-.2c.2-.1.5 0 .9.1z"/><path d="m33.3 1v1.4h2.5v.8h-2.5v1.4h2.8v.8h-3.7v-5.1h3.6v.7z"/><path d="m42.6.5c.3.1.6.3.9.6l-.5.5c-.2-.2-.4-.4-.7-.5s-.5-.2-.8-.2-.6.1-.9.2c-.3.2-.5.4-.7.6s-.2.6-.2.9.1.6.2.9.4.5.7.6c.3.2.6.2.9.2.2 0 .5-.1.7-.2s.5-.3.7-.4l.5.6c-.3.3-.6.5-.9.6s-.7.2-1 .2c-.5 0-.9-.1-1.3-.3s-.7-.5-.9-.9-.3-.8-.3-1.3.1-.9.3-1.3.6-.7 1-.9.9-.3 1.3-.3c.3.1.6.2 1 .4z"/><path d="m50.5 4.4c-.2.3-.4.6-.8.7-.3.2-.7.3-1.2.3s-.8-.1-1.2-.3c-.3-.2-.6-.4-.8-.7s-.3-.7-.3-1.1v-3h.8v3c0 .4.1.8.4 1 .2.2.6.4 1 .4s.7-.1 1-.4c.2-.2.4-.6.4-1v-3h.9v3c.1.4 0 .7-.2 1.1z"/><path d="m56.5 3.8s-.1 0-.2 0h-1.3v1.5h-.9v-5.1h2.1c.6 0 1.1.2 1.5.5s.5.7.5 1.3c0 .4-.1.7-.3 1s-.4.5-.8.6l1.1 1.7h-1zm.6-1c.2-.2.3-.4.3-.8 0-.3-.1-.6-.3-.7-.2-.2-.5-.2-.9-.2h-1.2v2h1.2c.4-.1.7-.2.9-.3z"/><path d="m61.6 5.3v-5.1h.9v5.1z"/><path d="m67.8 1v4.3h-.9v-4.3h-1.6v-.8h4.1v.8z"/><path d="m72.2 5.3v-5.1h.9v5.1z"/><path d="m77.4 1v1.4h2.5v.8h-2.5v1.4h2.8v.8h-3.7v-5.1h3.6v.7z"/><path d="m86.1.4c.3.1.6.2.8.4l-.4.8c-.3-.2-.5-.3-.8-.4s-.5-.1-.7-.1c-.3 0-.5 0-.6.1s-.2.2-.2.4c0 .1 0 .3.1.4s.2.2.4.2.3.1.6.2.6.2.8.3.4.2.5.4c.2.2.2.4.2.8 0 .3-.1.6-.2.8-.2.2-.4.4-.7.5s-.6.2-1 .2-.8-.1-1.1-.2c-.4-.1-.7-.3-.9-.6l.4-.7c.3.2.5.4.8.5s.6.2.9.2.5-.1.7-.2.2-.3.2-.5 0-.3-.1-.4-.2-.2-.4-.2c-.1-.1-.3-.1-.6-.2s-.6-.2-.8-.3-.4-.2-.5-.4c-.2-.2-.2-.4-.2-.7s.1-.5.2-.7.4-.4.6-.5.6-.2 1-.2c.4-.1.7 0 1 .1z"/><path d="m96 1v4.3h-.9v-4.3h-1.6v-.8h4.1v.8z"/><path d="m103.8.6c.4.2.7.5 1 .9.2.4.4.8.4 1.3s-.1.9-.4 1.3c-.2.4-.6.7-1 .9s-.9.3-1.4.3-.9-.1-1.4-.3-.7-.5-1-.9c-.2-.4-.4-.8-.4-1.3s.1-.9.4-1.3c.2-.4.6-.7 1-.9s.9-.3 1.4-.3c.6-.1 1 .1 1.4.3zm-2.2.6c-.3.2-.5.4-.7.6-.2.3-.2.6-.2.9s.1.6.2.9c.2.3.4.5.7.7s.6.2.9.2.6-.1.9-.2c.3-.2.5-.4.7-.7s.2-.6.2-.9-.1-.6-.2-.9c-.2-.3-.4-.5-.7-.6-.3-.2-.6-.2-.9-.2s-.7.1-.9.2z"/><path d="m109.9 3.1-.9.9v1.3h-.9v-5.1h.9v2.6l2.4-2.6h1l-2 2.2 2.1 2.9h-1z"/><path d="m116.4 1v1.4h2.5v.8h-2.5v1.4h2.8v.8h-3.7v-5.1h3.6v.7z"/><path d="m126 5.3-2.7-3.6v3.6h-.9v-5.1h.8l2.7 3.6v-3.6h.8v5.1z"/><path d="m137.9.7c.3.3.5.7.5 1.3s-.2 1-.5 1.3-.8.5-1.5.5h-1.2v1.5h-.9v-5.1h2c.7.1 1.2.2 1.6.5zm-2.7 2.3h1.1c.4 0 .7-.1.9-.3s.3-.4.3-.8c0-.3-.1-.6-.3-.7-.2-.2-.5-.2-.9-.2h-1.1z"/><path d="m144.4 4.5v.8h-3v-5.1h.9v4.3z"/><path d="m148.2 4.2-.5 1.1h-.9l2.2-5.1h.9l2.2 5.1h-.9l-.5-1.1zm1.3-3-1 2.2h1.9z"/><path d="m156.3 1v4.3h-.9v-4.3h-1.6v-.8h4.1v.8z"/><path d="m161.7 1v1.5h2.3v.8h-2.3v2.1h-.9v-5.1h3.4v.8h-2.5z"/><path d="m170.7.6c.4.2.7.5 1 .9.2.4.4.8.4 1.3s-.1.9-.4 1.3c-.2.4-.6.7-1 .9s-.9.3-1.4.3-.9-.1-1.4-.3-.7-.5-1-.9c-.2-.4-.4-.8-.4-1.3s.1-.9.4-1.3c.2-.4.6-.7 1-.9s.9-.3 1.4-.3c.6-.1 1 .1 1.4.3zm-2.2.6c-.3.2-.5.4-.7.6-.2.3-.2.6-.2.9s.1.6.2.9c.2.3.4.5.7.7s.6.2.9.2.6-.1.9-.2c.3-.2.5-.4.7-.7s.2-.6.2-.9-.1-.6-.2-.9c-.2-.3-.4-.5-.7-.6-.3-.2-.6-.2-.9-.2s-.6.1-.9.2z"/><path d="m177.4 3.8s-.1 0-.2 0h-1.2v1.5h-.9v-5.1h2.1c.6 0 1.1.2 1.5.5s.5.7.5 1.3c0 .4-.1.7-.3 1s-.4.5-.8.6l1.1 1.7h-1zm.7-1c.2-.2.3-.4.3-.8 0-.3-.1-.6-.3-.7-.2-.2-.5-.2-.9-.2h-1.2v2h1.2c.4-.1.7-.2.9-.3z"/><path d="m187.1 5.3v-3.8l-1.6 3.2h-.6l-1.6-3.2v3.8h-.8v-5.1h1l1.7 3.4 1.7-3.4h1v5.1z"/></g></g></svg>