<svg xmlns="http://www.w3.org/2000/svg" width="37.969" height="28.125"><path data-name="“" class="cls-1" d="M35.645-.015Q22.338 6.7 22.339 18.601a9.712 9.712 0 0 0 2.5 6.744 7.72 7.72 0 0 0 5.923 2.78 6.667 6.667 0 0 0 5.066-2.136 7.362 7.362 0 0 0 2.014-5.249 7.342 7.342 0 0 0-2.075-5.157 8.224 8.224 0 0 0-5.249-2.594q0-4.944 7.446-8.606zm-22.4 0Q0 6.7 0 18.601a9.785 9.785 0 0 0 2.475 6.744 7.63 7.63 0 0 0 5.887 2.78 6.765 6.765 0 0 0 5.1-2.136 7.3 7.3 0 0 0 2.045-5.249 7.342 7.342 0 0 0-2.075-5.157 8.278 8.278 0 0 0-5.31-2.594q0-4.944 7.507-8.606z"/></svg>