<svg width="264" height="120" xmlns="http://www.w3.org/2000/svg"><g fill="none" fill-rule="evenodd"><g fill-rule="nonzero"><path d="M75.371 87.082H78c1.67 0 2.629-1.047 2.629-2.421v-.033c0-1.57-1.052-2.421-2.69-2.421H72.03V79h6.185C81.836 79 84 81.258 84 84.53v.032c0 3.698-2.722 5.628-6.124 5.628H75.34V95H72v-7.918h3.371zM93 87.063V87c0-4.395 3.596-8 8.533-8 4.936 0 8.467 3.573 8.467 7.968V87c0 4.395-3.596 8-8.533 8C96.531 95 93 91.458 93 87.063zm13.306 0V87c0-2.656-2.027-4.87-4.839-4.87-2.844 0-4.805 2.15-4.805 4.807v.031c0 2.657 2.026 4.87 4.838 4.87 2.844.032 4.806-2.119 4.806-4.775zM119 79h3.375v12.793H130V95h-11zm24.215 9.685L137 79h4.165l3.868 6.413L148.967 79H153l-6.215 9.62V95h-3.57v-6.315zM161 79h3.788L169 85.773 173.212 79H177v16h-3.494V84.562L169 91.401h-.098l-4.44-6.773V95H161zm35.58 9.347l-2.13-5.16-2.128 5.16-1.245 3.083-1.474 3.57H186l6.879-16h3.242L203 95h-3.701l-1.474-3.57zm17.203-6.107H209V79h13v3.24h-4.783V95h-3.434zM231 79h3.383v6.348h6.234V79H244v16h-3.383v-6.413h-6.234V95H231z" fill="#2A3F7D"/><path d="M74.287 101.031v3.813h-.773v-3.813h-1.482v-.687h3.737v.687zm7.378 3.813v-1.875h-2.449v1.875h-.773v-4.5h.773v1.969h2.449v-1.97h.773v4.5zm4.768-3.813v1.219h2.255v.688h-2.255v1.25h2.61v.687H85.66v-4.5h3.318v.688h-2.545zm11.662-.593c.29.093.548.187.74.343l-.321.656a2.344 2.344 0 0 0-.709-.312 2.475 2.475 0 0 0-.644-.094c-.226 0-.42.031-.548.125-.129.094-.193.188-.193.344 0 .125.032.25.129.344.096.094.193.156.322.219.129.062.322.124.547.187.323.094.58.188.774.281.193.094.354.219.515.406.129.188.193.407.193.688 0 .25-.064.5-.225.688a1.846 1.846 0 0 1-.612.468c-.258.094-.58.156-.902.156-.355 0-.709-.062-1.031-.187a3.07 3.07 0 0 1-.87-.531l.354-.656c.226.218.484.374.774.5.29.124.547.156.805.156.29 0 .483-.063.644-.156.161-.094.226-.22.226-.407a.462.462 0 0 0-.13-.344.963.963 0 0 0-.353-.218 3.524 3.524 0 0 0-.548-.188c-.322-.094-.58-.187-.773-.25a1.42 1.42 0 0 1-.484-.375c-.128-.156-.193-.375-.193-.656 0-.25.065-.469.226-.656.128-.188.354-.344.58-.438a2.39 2.39 0 0 1 .87-.156c.257-.063.547-.031.837.063zm4.51.593v1.219h2.255v.688h-2.255v1.25h2.61v.687h-3.383v-4.5h3.318v.688h-2.545zm8.57-.531c.322.125.58.281.805.5l-.45.563a1.391 1.391 0 0 0-.613-.407 1.801 1.801 0 0 0-.709-.156c-.29 0-.58.063-.837.219-.258.125-.451.344-.613.562-.16.25-.225.5-.225.813 0 .281.064.562.225.812a1.5 1.5 0 0 0 .613.563c.257.156.547.219.837.219.226 0 .451-.063.677-.157.225-.094.419-.219.612-.406l.45.5a2.528 2.528 0 0 1-.837.531 2.655 2.655 0 0 1-.966.188c-.451 0-.87-.094-1.224-.313a2.374 2.374 0 0 1-.87-.812 2.096 2.096 0 0 1-.322-1.156c0-.407.096-.813.322-1.157.225-.344.515-.625.87-.812.386-.188.773-.313 1.224-.313a3.54 3.54 0 0 1 1.03.219zm7.313 3.5c-.161.281-.387.5-.709.656-.29.156-.677.219-1.063.219-.419 0-.773-.063-1.063-.219a1.768 1.768 0 0 1-.71-.656 2.013 2.013 0 0 1-.257-1v-2.625h.773V103c0 .375.097.688.323.875.225.219.515.313.902.313.386 0 .676-.094.902-.313.225-.219.322-.5.322-.906v-2.625h.773v2.625c.032.406-.032.75-.193 1.031zm5.444-.5h-1.321v1.344h-.773v-4.5h1.9c.58 0 1.064.125 1.386.406.322.281.483.656.483 1.125 0 .375-.096.656-.257.906s-.42.438-.709.563l1.03 1.5h-.901l-.838-1.344zm.612-.906c.194-.156.29-.375.29-.688 0-.281-.096-.5-.29-.656-.193-.156-.483-.219-.837-.219h-1.096v1.781h1.096c.354 0 .644-.062.837-.218zm4.06 2.25v-4.5h.773v4.5zm5.702-3.813v3.813h-.773v-3.813h-1.482v-.687h3.737v.687zm4.124 3.813v-4.5h.773v4.5zm4.767-3.813v1.219h2.256v.688h-2.256v1.25h2.61v.687h-3.383v-4.5h3.318v.688h-2.545zm7.958-.593c.29.093.547.187.74.343l-.321.656a2.344 2.344 0 0 0-.71-.312 2.475 2.475 0 0 0-.644-.094c-.225 0-.418.031-.547.125-.13.094-.193.188-.193.344 0 .125.032.25.128.344.097.094.194.156.323.219.128.062.322.124.547.187.322.094.58.188.773.281.194.094.355.219.516.406.129.188.193.407.193.688 0 .25-.064.5-.225.688a1.846 1.846 0 0 1-.612.468c-.258.125-.58.156-.903.156-.354 0-.708-.062-1.03-.187a3.07 3.07 0 0 1-.87-.531l.354-.656c.226.218.483.374.773.5.29.124.548.156.806.156.29 0 .483-.063.644-.156.161-.094.226-.22.226-.407a.462.462 0 0 0-.13-.344.963.963 0 0 0-.354-.218 3.524 3.524 0 0 0-.547-.188c-.323-.094-.58-.187-.774-.25a1.42 1.42 0 0 1-.483-.375c-.129-.156-.193-.375-.193-.656a.96.96 0 0 1 .225-.656c.161-.188.355-.344.58-.438a2.39 2.39 0 0 1 .87-.156c.29-.063.58-.031.838.063zm9.117.593v3.813h-.773v-3.813h-1.482v-.687h3.737v.687zm7.184-.406c.387.188.677.469.902.813.226.343.322.718.322 1.156 0 .437-.096.812-.322 1.156a2.236 2.236 0 0 1-.902.813 2.866 2.866 0 0 1-1.256.312c-.451 0-.87-.094-1.257-.313a2.236 2.236 0 0 1-.902-.812 2.096 2.096 0 0 1-.322-1.156c0-.438.097-.813.322-1.156.226-.344.516-.626.902-.813a2.866 2.866 0 0 1 1.257-.313c.45 0 .87.126 1.256.313zm-2.062.594a2.087 2.087 0 0 0-.612.562c-.161.25-.225.5-.225.813 0 .281.064.562.225.812s.354.438.612.594c.258.156.516.219.838.219.29 0 .58-.063.837-.219.258-.156.451-.344.613-.594a1.48 1.48 0 0 0 .225-.812 1.48 1.48 0 0 0-.225-.813 1.493 1.493 0 0 0-.613-.562 1.523 1.523 0 0 0-.837-.219c-.322 0-.58.094-.838.219zm7.668 1.656l-.806.844v1.156h-.773v-4.5h.773v2.344l2.223-2.344h.934l-1.804 1.938 1.933 2.593h-.934zm5.96-1.844v1.219h2.255v.688h-2.255v1.25h2.61v.687h-3.384v-4.5h3.319v.688h-2.545zm8.827 3.813l-2.48-3.219v3.219h-.774v-4.5h.773l2.48 3.25v-3.25h.774v4.5zm10.889-4.094c.322.281.483.656.483 1.125 0 .5-.161.906-.483 1.188-.322.28-.773.406-1.353.406h-1.063v1.344h-.774v-4.5h1.869c.548.03.999.156 1.32.437zm-2.416 2.063h1.03c.355 0 .645-.063.838-.22.193-.156.29-.374.29-.687 0-.281-.097-.5-.29-.656-.193-.156-.483-.219-.837-.219h-1.031v1.781zm8.472 1.343v.688h-2.802v-4.5h.773v3.812zm3.416-.312l-.452 1.031h-.805l2.062-4.5h.805l2.03 4.5h-.838l-.45-1.031h-2.353zm1.191-2.688l-.87 2h1.74l-.87-2zm6.282-.125v3.813h-.773v-3.813h-1.482v-.687h3.737v.687zm4.929 0v1.313h2.095v.687h-2.095v1.844h-.773v-4.5h3.125v.688h-2.352zm8.344-.406c.387.188.677.469.902.813.226.343.323.718.323 1.156 0 .437-.097.812-.323 1.156a2.236 2.236 0 0 1-.902.813 2.866 2.866 0 0 1-1.256.312 2.49 2.49 0 0 1-1.256-.313 2.236 2.236 0 0 1-.902-.812 2.096 2.096 0 0 1-.323-1.156c0-.438.097-.813.323-1.156.225-.344.515-.626.902-.813a2.866 2.866 0 0 1 1.256-.313c.451 0 .87.126 1.256.313zm-2.094.594a2.087 2.087 0 0 0-.612.562c-.16.25-.225.5-.225.813 0 .281.064.562.225.812s.355.438.612.594c.258.156.516.219.838.219.29 0 .58-.063.838-.219a1.84 1.84 0 0 0 .612-.594 1.48 1.48 0 0 0 .225-.812 1.48 1.48 0 0 0-.225-.813 1.493 1.493 0 0 0-.612-.562 1.523 1.523 0 0 0-.838-.219c-.29 0-.58.094-.838.219zm8.215 2.281h-1.32v1.344h-.774v-4.5h1.901c.58 0 1.063.125 1.385.406.323.281.484.656.484 1.125 0 .375-.097.656-.258.906s-.419.438-.709.563l1.031 1.5h-.902l-.838-1.344zm.613-.906c.193-.156.29-.375.29-.688 0-.281-.097-.5-.29-.656-.194-.156-.484-.219-.838-.219h-1.095v1.781h1.095c.387 0 .644-.062.838-.218zm8.28 2.25v-3.375l-1.483 2.906h-.515l-1.45-2.906v3.375h-.741v-4.5h.934l1.547 3 1.514-3h.934v4.5z" fill="#366FA0"/><path fill="#313A62" d="M156 24.552l-.29-4.822-1.413 4.019-7.97 6.977-9.126 1.414-2.731-2.636 7.97-11.06L150.665 16l-8.87.193-12.886 9.356-12.082-.868 12.114 8.295 5.978 4.212-18.189-12.796L99.828 16l-10.026 1.993-31.267 26.044-15.039 4.854-6.202 6.334-11.119.129-5.463 10.224L13 67.797l7.295 1.029 6.78-9.164L37.52 61.85l-.16 9.774-5.239 14.115-2.988 13.053L25.918 104l8.162-1.8-.931-5.338 6.909-14.34 13.4-5.369 5.173-8.584 8.741-6.399 17.32 2.572 17.514-7.684-2.988 12.121-7.777.708-2.217 9.999 6.684-4.47 10.99-4.79 8.644-13.504.514-6.43 4.66 4.823 13.464 8.424 7.616-3.601-.45-17.91-2.185-6.912 9.994-2.508z"/><path fill="#3F4B80" d="M134.566 29.253l-5.88-4.289L142.438 18z"/><path fill="#313A62" d="M99.603 15.129l17.128 8.835 2.057 14.253z"/><path fill="#3F4B80" d="M118.788 38.217l-2.732 12.125-16.453-35.213z"/><path fill="#4B5897" d="M116.056 50.342L89.834 17.128l9.802-1.935z"/><path fill="#5161A4" d="M116.056 50.342L87.617 39.185l2.217-22.057z"/><path fill="#4B5897" d="M89.834 17.128l-2.217 22.057-29.307 4.127zm26.222 33.214l-31.363 8.545 2.924-19.702z"/><path fill="#3F4B80" d="M84.693 58.887l31.363-8.545-14.139 6.61zm-17.321 2.967l17.32-2.967.29 5.934z"/><path fill="#313A62" d="M84.982 64.82l-.29-5.933 17.225-1.934z"/><path fill="#3F4B80" d="M58.31 43.312l29.307-4.127-2.924 19.702z"/><path fill="#4B5897" d="M58.31 43.312l26.383 15.575-17.32 2.967z"/><path fill="#313A62" d="M58.31 43.312l9.062 18.542-8.74 6.417z"/><path fill="#5161A4" d="M43.432 48.31l3.502 21.122-9.64-14.543z"/><path fill="#313A62" d="M26.175 55.018l11.119-.13.064 6.805z"/><path fill="#3F4B80" d="M27.075 59.629l-.9-4.611 11.183 6.675z"/><path fill="#4B5897" d="M27.075 59.629l-6.363 5.643 5.463-10.254z"/><path fill="#313A62" d="M20.712 65.272l-.45 3.418L13 67.497z"/><path fill="#5161A4" d="M20.712 65.272l6.363-5.643-6.813 9.061z"/><path fill="#3F4B80" d="M37.294 54.889l9.64 14.543-9.576 1.902zm2.828 27.281l-6.973 14.478L32.12 85.49z"/><path fill="#1F243E" d="M32.12 85.49l1.029 11.158-4.017 1.935z"/><path fill="#3F4B80" d="M33.149 96.648l1.06 5.45-8.29 1.709z"/><path fill="#313A62" d="M29.132 98.583l4.017-1.935-7.23 7.159zm8.226-27.249l9.576-1.902L32.12 85.49z"/><path fill="#4B5897" d="M46.934 69.432l6.524 7.449-21.338 8.61zM43.432 48.31l14.878-4.998-11.376 26.12z"/><path fill="#3F4B80" d="M46.934 69.432l11.376-26.12.321 24.959z"/><path fill="#313A62" d="M53.458 76.88l-6.524-7.448 11.697-1.161z"/><path fill="#4B5897" d="M101.917 56.953l13.786-.097-8.805 13.479z"/><path fill="#5161A4" d="M101.917 56.953l14.14-6.611-.354 6.514z"/><path fill="#3F4B80" d="M99.218 68.884l2.7-11.931 4.98 13.382z"/><path fill="#4B5897" d="M95.908 75.14l3.31-6.256 7.68 1.45z"/><path fill="#3F4B80" d="M89.224 79.622l2.089-10.255 7.905-.483z"/><path fill="#313A62" d="M89.224 79.622l9.994-10.738-3.31 6.255z"/><path fill="#495692" d="M128.685 24.964l13.111-9.222.643 2.257z"/><path fill="#5D6CAC" d="M141.796 15.742l10.733-.549L142.44 18z"/><path fill="#4F60A3" d="M134.92 36.799l-5.978-4.225 20.213.033z"/><path fill="#495692" d="M128.942 32.574l17.385-2.257 2.828 2.29z"/><path fill="#3F4B80" d="M146.327 30.317l7.97-6.997-5.142 9.287z"/><path fill="#4F60A3" d="M149.155 32.607l5.142-9.287 1.703.806z"/><path fill="#313A62" d="M154.297 23.32l1.414-4.031.289 4.837zm-35.509 14.897l1.928 16.962-4.66-4.837z"/><path fill="#3F4B80" d="M120.716 55.179l-1.928-16.962L134.92 36.8z"/><path fill="#4B5897" d="M134.92 36.799l-16.132 1.418-2.057-14.253z"/><path fill="#313A62" d="M134.566 29.253l2.603 2.354-8.227.967z"/><path fill="#3F4B80" d="M116.731 23.964l17.835 5.289-5.624 3.321z"/><path fill="#313A62" d="M116.731 23.964l11.954 1 5.881 4.289z"/><path fill="#3F4B80" d="M134.18 63.628l.74-26.83 6.427 5.257z"/><path fill="#495692" d="M134.18 63.628l.74-26.83-14.204 18.381z"/><path fill="#313A62" d="M141.347 42.055l-2.057-6.708-4.37 1.452zm.867 17.865l-8.034 3.708 7.167-21.573z"/></g><path fill="#FFF" style="mix-blend-mode:color" d="M0 0h264v120H0z"/></g></svg>