<svg height="184" viewBox="0 0 184 184" width="184" xmlns="http://www.w3.org/2000/svg" xmlns:xlink="http://www.w3.org/1999/xlink"><linearGradient id="a" x1="66.67%" x2="41.67%" y1="16.67%" y2="75%"><stop offset="0" stop-color="#37aee2"/><stop offset="1" stop-color="#1e96c8"/></linearGradient><linearGradient id="b" x1="61.234676%" x2="74.706438%" y1="43.69%" y2="80.24%"><stop offset="0" stop-color="#eff7fc"/><stop offset="1" stop-color="#fff"/></linearGradient><g fill="none" transform=""><circle cx="92" cy="92" fill="url(#a)" r="92"/><path d="m75.1333333 134.166667c-2.9804933 0-2.4740333-1.12539-3.50198-3.963284l-8.7646866-28.845526 67.4666663-40.0245237" fill="#c8daea"/><path d="m75.1333333 134.166667c2.3 0 3.3162167-1.051867 4.6-2.3l12.2666667-11.9278-15.3011333-9.226834" fill="#a9c9dd"/><path d="m76.6973333 110.714333 37.0759997 27.392234c4.23085 2.334423 7.284407 1.125773 8.338267-3.928017l15.091833-71.1183c1.54514-6.19482-2.36141-9.0045-6.408873-7.1669533l-88.619 34.1711c-6.0490767 2.42627-6.01381 5.80106-1.10262 7.3048l22.7416333 7.0980303 52.6492997-33.2158337c2.485457-1.50719 4.766597-.6968923 2.89432.9647734" fill="url(#b)"/></g></svg>