<?xml version="1.0" encoding="UTF-8"?>
<svg width="56px" height="56px" viewBox="0 0 56 56" version="1.1" xmlns="http://www.w3.org/2000/svg" xmlns:xlink="http://www.w3.org/1999/xlink">
    <!-- Generator: Sketch 50 (54983) - http://www.bohemiancoding.com/sketch -->
    <title>2-circle</title>
    <desc>Created with Sketch.</desc>
    <defs>
        <linearGradient x1="50%" y1="0%" x2="50%" y2="100%" id="linearGradient-1">
            <stop stop-color="#27326C" offset="0%"></stop>
            <stop stop-color="#A6ABC6" offset="100%"></stop>
        </linearGradient>
    </defs>
    <g id="Page-1" stroke="none" stroke-width="1" fill="none" fill-rule="evenodd">
        <g id="Website-1-Copy" transform="translate(-1064.000000, -3960.000000)">
            <g id="scheme-blk" transform="translate(160.000000, 3748.000000)">
                <g id="Group-7">
                    <g id="scheme" transform="translate(0.000000, 188.000000)">
                        <g id="item-2-2" transform="translate(880.000000, 0.000000)">
                            <g id="2-circle" transform="translate(24.000000, 24.000000)">
                                <circle id="Combined-Shape" stroke="url(#linearGradient-1)" stroke-width="2" cx="28" cy="28" r="27"></circle>
                                <path d="M21.925,37 C21.925,32.9833132 24.024979,29.8916775 28.225,27.725 C29.1416713,27.258331 29.8583308,26.7625026 30.375,26.2375 C30.8916692,25.7124974 31.15,25.0666705 31.15,24.3 C31.15,23.566663 30.8625029,22.9500025 30.2875,22.45 C29.7124971,21.9499975 28.9833377,21.7 28.1,21.7 C26.3499913,21.7 25.175003,22.4749922 24.575,24.025 L22.2,22.95 C22.6333355,21.816661 23.3791614,20.9083368 24.4375,20.225 C25.4958386,19.5416632 26.724993,19.2 28.125,19.2 C29.8750087,19.2 31.2666615,19.6791619 32.3,20.6375 C33.3333385,21.5958381 33.85,22.841659 33.85,24.375 C33.85,25.3250047 33.6375021,26.1583298 33.2125,26.875 C32.7874979,27.5916702 32.2916695,28.1583312 31.725,28.575 C31.1583305,28.9916687 30.3583385,29.4749973 29.325,30.025 C26.8916545,31.3250065 25.4833353,32.7999917 25.1,34.45 L34,34.45 L34,37 L21.925,37 Z" id="2" fill="url(#linearGradient-1)"></path>
                            </g>
                        </g>
                    </g>
                </g>
            </g>
        </g>
    </g>
</svg>