<?xml version="1.0" encoding="UTF-8"?>
<svg width="56px" height="56px" viewBox="0 0 56 56" version="1.1" xmlns="http://www.w3.org/2000/svg" xmlns:xlink="http://www.w3.org/1999/xlink">
    <!-- Generator: Sketch 50 (54983) - http://www.bohemiancoding.com/sketch -->
    <title>3-circle</title>
    <desc>Created with Sketch.</desc>
    <defs>
        <linearGradient x1="50%" y1="0%" x2="50%" y2="100%" id="linearGradient-1">
            <stop stop-color="#27326C" offset="0%"></stop>
            <stop stop-color="#A6ABC6" offset="100%"></stop>
        </linearGradient>
    </defs>
    <g id="Page-1" stroke="none" stroke-width="1" fill="none" fill-rule="evenodd">
        <g id="Website-1-Copy" transform="translate(-184.000000, -4303.000000)">
            <g id="scheme-blk" transform="translate(160.000000, 3748.000000)">
                <g id="Group-7">
                    <g id="scheme" transform="translate(0.000000, 188.000000)">
                        <g id="item-3-2" transform="translate(0.000000, 343.000000)">
                            <g id="3-circle" transform="translate(24.000000, 24.000000)">
                                <circle id="Combined-Shape" stroke="url(#linearGradient-1)" stroke-width="2" cx="28" cy="28" r="27"></circle>
                                <path d="M27.8125,37.3 C26.3124925,37.3 25.0375053,36.9416703 23.9875,36.225 C22.9374948,35.5083298 22.1625025,34.5250063 21.6625,33.275 L24.0875,32.3 C24.820837,33.966675 26.0624913,34.8 27.8125,34.8 C28.812505,34.8 29.6333301,34.5625024 30.275,34.0875 C30.9166699,33.6124976 31.2375,32.9000048 31.2375,31.95 C31.2375,31.1333293 30.9583361,30.4625026 30.4,29.9375 C29.8416639,29.4124974 29.0041722,29.15 27.8875,29.15 L26.5375,29.15 L26.5375,26.65 L27.8875,26.65 C28.7041707,26.65 29.3583309,26.4291689 29.85,25.9875 C30.3416691,25.5458311 30.5875,24.9750035 30.5875,24.275 C30.5875,23.4583292 30.3458358,22.8250022 29.8625,22.375 C29.3791643,21.9249977 28.6958378,21.7 27.8125,21.7 C26.412493,21.7 25.37917,22.3583267 24.7125,23.675 L22.2875,22.75 C22.7041688,21.6499945 23.3958285,20.7833365 24.3625,20.15 C25.3291715,19.5166635 26.5041598,19.2 27.8875,19.2 C29.4541745,19.2 30.7458282,19.6708286 31.7625,20.6125 C32.7791718,21.5541714 33.2875,22.69166 33.2875,24.025 C33.2875,25.7916755 32.5375075,27.0583295 31.0375,27.825 C32.970843,28.5916705 33.9375,29.9333237 33.9375,31.85 C33.9375,33.5666753 33.370839,34.9041619 32.2375,35.8625 C31.104161,36.8208381 29.6291758,37.3 27.8125,37.3 Z" id="3" fill="url(#linearGradient-1)"></path>
                            </g>
                        </g>
                    </g>
                </g>
            </g>
        </g>
    </g>
</svg>