<?xml version="1.0" encoding="UTF-8"?>
<svg width="57px" height="57px" viewBox="0 0 57 57" version="1.1" xmlns="http://www.w3.org/2000/svg" xmlns:xlink="http://www.w3.org/1999/xlink">
    <!-- Generator: Sketch 49.2 (51160) - http://www.bohemiancoding.com/sketch -->
    <title>BTC</title>
    <desc>Created with Sketch.</desc>
    <defs>
        <linearGradient x1="50%" y1="0%" x2="50%" y2="100%" id="linearGradient-1">
            <stop stop-color="#B0B5C3" offset="0%"></stop>
            <stop stop-color="#9499AC" offset="100%"></stop>
        </linearGradient>
        <linearGradient x1="50%" y1="0%" x2="50%" y2="100%" id="linearGradient-2">
            <stop stop-color="#CBD0DA" offset="0%"></stop>
            <stop stop-color="#7A7F96" offset="100%"></stop>
        </linearGradient>
    </defs>
    <g id="Page-1" stroke="none" stroke-width="1" fill="none" fill-rule="evenodd">
        <g id="New-Website" transform="translate(-700.000000, -1463.000000)">
            <g id="BTC" transform="translate(700.000000, 1463.000000)">
                <g id="BitcoinSign" transform="translate(28.989897, 29.174487) rotate(12.000000) translate(-28.989897, -29.174487) translate(15.989897, 11.674487)" fill="url(#linearGradient-1)" fill-rule="nonzero">
                    <path d="M20.884249,16.3346119 C22.6945865,15.4021101 23.8272742,13.7598332 23.5626857,11.0238851 C23.2063705,7.28492969 20.0135263,6.03117061 15.9829964,5.67411969 L15.9822191,0.487883803 L12.8593358,0.487883803 L12.8584613,5.53773037 C12.0368084,5.53773037 11.19922,5.55405382 10.3654212,5.57096728 L10.364741,0.488572141 L7.24467558,0.488277139 L7.24409257,5.67323469 C6.56790025,5.68719812 5.90385394,5.70047322 5.25545168,5.70047322 L5.25545168,5.6851331 L0.947992957,5.68336309 L0.948575965,9.05445084 C0.948575965,9.05445084 3.25476197,9.01059385 3.21676927,9.05317249 C4.48121683,9.0540575 4.89408378,9.79647954 5.01282312,10.4373225 L5.0137948,16.345527 L5.0137948,24.6446254 C4.95811752,25.0468116 4.7238454,25.6894246 3.8397135,25.6906046 C3.87994107,25.7263982 1.56802215,25.6902113 1.56802215,25.6902113 L0.948575965,29.4598469 L5.01185144,29.4598469 C5.76898472,29.4607319 6.51290315,29.4726304 7.24273222,29.4785304 L7.24545292,34.7234717 L10.364741,34.7243567 L10.3638665,29.5343841 C11.2220545,29.5520843 12.050412,29.5597543 12.8595301,29.5586726 L12.8586556,34.7243567 L15.9814417,34.7243567 L15.9831908,29.4881671 C21.232402,29.1833316 24.9072969,27.8462836 25.364181,22.8619275 C25.7324478,18.8490134 23.8644896,17.0577605 20.884249,16.3346119 Z M10.4400462,9.28199582 C12.2013139,9.28199582 17.7404746,8.71490338 17.7412519,12.4349786 C17.7404746,16.0014561 12.2030629,15.5848148 10.4400462,15.5848148 L10.4400462,9.28199582 Z M10.4386859,25.7161715 L10.4400462,18.7667078 C12.5561715,18.7661178 19.1934281,18.1510384 19.1943026,22.2398663 C19.1951771,26.1610347 12.5561715,25.7145981 10.4386859,25.7161715 Z" id="Shape" transform="translate(13.179154, 17.606120) rotate(1.000000) translate(-13.179154, -17.606120) "></path>
                </g>
                <circle id="Oval" stroke="url(#linearGradient-2)" stroke-width="2" cx="28.5" cy="28.5" r="27.5"></circle>
            </g>
        </g>
    </g>
</svg>