<svg width="57" height="57" xmlns="http://www.w3.org/2000/svg"><defs><linearGradient x1="50%" y1="0%" x2="50%" y2="100%" id="a"><stop stop-color="#B0B5C3" offset="0%"/><stop stop-color="#9499AC" offset="100%"/></linearGradient><linearGradient x1="50%" y1="0%" x2="50%" y2="100%" id="b"><stop stop-color="#CBD0DA" offset="0%"/><stop stop-color="#7A7F96" offset="100%"/></linearGradient></defs><g fill="none" fill-rule="evenodd"><path d="M20.884 16.335c1.81-.933 2.943-2.575 2.679-5.311-.357-3.74-3.55-4.993-7.58-5.35V.488h-3.124v5.05c-.822 0-1.66.016-2.494.033V.489h-3.12v5.184a97.07 97.07 0 0 1-1.99.027v-.015L.948 5.683v3.371s2.307-.043 2.269 0c1.264 0 1.677.742 1.796 1.383v14.208c-.055.402-.29 1.044-1.173 1.046.04.035-2.272 0-2.272 0l-.62 3.769h4.064c.757 0 1.5.013 2.23.019l.003 5.244 3.12.001-.001-5.19c.858.018 1.686.026 2.496.025l-.001 5.165h3.122l.002-5.236c5.25-.305 8.924-1.642 9.381-6.626.368-4.013-1.5-5.804-4.48-6.527zM10.44 9.282c1.761 0 7.3-.567 7.301 3.153 0 3.566-5.538 3.15-7.301 3.15V9.282zm-.001 16.434l.001-6.95c2.116 0 8.753-.615 8.754 3.474.001 3.921-6.638 3.475-8.755 3.476z" transform="rotate(13 -30.225 93.518)" fill="url(#a)" fill-rule="nonzero"/><circle stroke="url(#b)" stroke-width="2" cx="28.5" cy="28.5" r="27.5"/></g></svg>