<svg width="56" height="56" xmlns="http://www.w3.org/2000/svg"><defs><linearGradient x1="50%" y1="0%" x2="50%" y2="99.07%" id="a"><stop stop-color="#C2C7D3" offset="0%"/><stop stop-color="#83889D" offset="100%"/></linearGradient><linearGradient x1="100%" y1="0%" x2="2.959%" y2="100%" id="b"><stop stop-color="#C8C8C8" offset="0%"/><stop stop-color="#BBC0CD" offset=".86%"/><stop stop-color="#8D92A6" offset="100%"/></linearGradient><linearGradient x1="100%" y1="0%" x2="2.728%" y2="100%" id="c"><stop stop-color="#9095A8" offset="0%"/><stop stop-color="#C1C6D2" offset="100%"/></linearGradient><linearGradient x1="100%" y1="0%" x2="0%" y2="103.496%" id="d"><stop stop-color="#969BAD" offset="0%"/><stop stop-color="#C1C6D2" offset="100%"/></linearGradient><linearGradient x1="95.808%" y1="0%" x2="-3.059%" y2="97.005%" id="e"><stop stop-color="#9A9FB0" offset="0%"/><stop stop-color="#A2A7B8" offset="100%"/></linearGradient><linearGradient x1="50%" y1="0%" x2="50%" y2="100%" id="f"><stop stop-color="#B3B8C6" offset="0%"/><stop stop-color="#A8ADBC" offset="100%"/></linearGradient><linearGradient x1="50%" y1="0%" x2="50%" y2="100%" id="g"><stop stop-color="#B1B6C4" offset="0%"/><stop stop-color="#ABB0BF" offset="100%"/></linearGradient><linearGradient x1="50%" y1="0%" x2="50%" y2="100%" id="h"><stop stop-color="#A2A7B7" offset="0%"/><stop stop-color="#969BAE" offset="100%"/></linearGradient></defs><g fill="none" fill-rule="evenodd"><circle stroke="url(#a)" stroke-width="2" cx="28" cy="28" r="27"/><path d="M9.52 48.122c11.804-4.716 20.404-10.29 25.8-16.725 5.396-6.435 8.326-14.61 8.791-24.525" stroke="url(#b)" stroke-width="2"/><path d="M5.043 42.545c10.153-3.072 17.927-7.514 23.323-13.325 5.396-5.81 8.823-14.232 10.281-25.266" stroke="url(#c)" stroke-width="2" transform="rotate(175 21.845 23.25)"/><path d="M23.427 39.081c8.16-1.75 14.937-5.531 20.333-11.342 5.396-5.81 8.823-14.21 10.28-25.198" stroke="url(#d)" stroke-width="2" transform="rotate(106 38.734 20.811)"/><path d="M11.662 53.128c8.375-4.252 15.261-9.284 20.657-15.095 5.396-5.81 9.143-15.077 11.241-27.799" stroke="url(#e)" stroke-width="2" transform="rotate(63 27.611 31.681)"/><circle fill="url(#f)" cx="16" cy="15" r="4"/><circle fill="url(#g)" cx="42" cy="19" r="4"/><circle fill="url(#h)" cx="28" cy="38" r="4"/></g></svg>