<svg xmlns="http://www.w3.org/2000/svg" viewBox="0 0 512 512"><path d="M494.345 512H17.655C7.901 512 0 504.099 0 494.345V105.931h512v388.414c0 9.754-7.901 17.655-17.655 17.655" fill="#e8edee"/><path d="M512 105.931H0V17.655C0 7.901 7.901 0 17.655 0h476.69C504.099 0 512 7.901 512 17.655v88.276z" fill="#546a79"/><path d="M88.276 52.966c0-14.627-11.855-26.483-26.483-26.483S35.31 38.338 35.31 52.966s11.855 26.483 26.483 26.483 26.483-11.856 26.483-26.483" fill="#ed7161"/><path d="M176.552 52.966c0-14.627-11.855-26.483-26.483-26.483s-26.483 11.855-26.483 26.483 11.855 26.483 26.483 26.483 26.483-11.856 26.483-26.483" fill="#ecba16"/><path d="M264.828 52.966c0-14.627-11.855-26.483-26.483-26.483-14.627 0-26.483 11.855-26.483 26.483s11.855 26.483 26.483 26.483c14.627-.001 26.483-11.856 26.483-26.483M123.586 158.897h-70.62a8.826 8.826 0 0 1-8.828-8.828 8.826 8.826 0 0 1 8.828-8.828h70.621a8.826 8.826 0 0 1 8.828 8.828 8.827 8.827 0 0 1-8.829 8.828" fill="#42b05c"/><path d="M123.586 264.828h-70.62c-4.882 0-8.828-3.955-8.828-8.828s3.946-8.828 8.828-8.828h70.621c4.882 0 8.828 3.955 8.828 8.828s-3.947 8.828-8.829 8.828" fill="#ecba16"/><path d="M203.034 211.862H79.448a8.826 8.826 0 0 1-8.828-8.828 8.826 8.826 0 0 1 8.828-8.828h123.586a8.826 8.826 0 0 1 8.828 8.828 8.826 8.826 0 0 1-8.828 8.828" fill="#dd342e"/><path d="M203.034 317.793H52.966c-4.882 0-8.828-3.955-8.828-8.828s3.946-8.828 8.828-8.828h150.069c4.882 0 8.828 3.955 8.828 8.828s-3.947 8.828-8.829 8.828" fill="#7383bf"/><path d="M176.552 370.759H79.448c-4.882 0-8.828-3.955-8.828-8.828s3.946-8.828 8.828-8.828h97.103c4.882 0 8.828 3.955 8.828 8.828s-3.946 8.828-8.827 8.828" fill="#ecba16"/><path d="M176.552 476.69H79.448c-4.882 0-8.828-3.955-8.828-8.828s3.946-8.828 8.828-8.828h97.103c4.882 0 8.828 3.955 8.828 8.828s-3.946 8.828-8.827 8.828" fill="#7383bf"/><path d="M229.517 423.724H105.931c-4.882 0-8.828-3.955-8.828-8.828s3.946-8.828 8.828-8.828h123.586c4.882 0 8.828 3.955 8.828 8.828s-3.946 8.828-8.828 8.828" fill="#42b05c"/><path d="M476.69 388.414V229.517c0-9.754-7.901-17.655-17.655-17.655H300.138c-9.754 0-17.655 7.901-17.655 17.655v52.966L256 308.966l26.483 26.483v52.966c0 9.754 7.901 17.655 17.655 17.655h158.897c9.754-.001 17.655-7.902 17.655-17.656" fill="#0f81e0"/><path d="M353.103 370.759c-14.601 0-26.483-11.882-26.483-26.483v-14.009l-15.086-15.192a8.807 8.807 0 0 1-2.569-6.25 8.84 8.84 0 0 1 2.604-6.232l15.051-14.954v-13.983c0-14.601 11.882-26.483 26.483-26.483 4.882 0 8.828 3.955 8.828 8.828s-3.946 8.828-8.828 8.828c-4.785 0-8.828 4.043-8.828 8.828v17.655a8.828 8.828 0 0 1-2.604 6.259l-11.396 11.326 11.432 11.502a8.798 8.798 0 0 1 2.569 6.223v17.655c0 4.785 4.043 8.828 8.828 8.828 4.882 0 8.828 3.955 8.828 8.828s-3.947 8.826-8.829 8.826m52.966 0c-4.882 0-8.828-3.955-8.828-8.828s3.946-8.828 8.828-8.828c4.785 0 8.828-4.043 8.828-8.828V326.62c0-2.339.927-4.59 2.586-6.241l11.414-11.414-11.414-11.414a8.803 8.803 0 0 1-2.586-6.241v-17.655c0-4.785-4.043-8.828-8.828-8.828-4.882 0-8.828-3.955-8.828-8.828s3.946-8.828 8.828-8.828c14.601 0 26.483 11.882 26.483 26.483v14.001l15.069 15.069a8.817 8.817 0 0 1 0 12.482l-15.069 15.069v14.001c0 14.601-11.882 26.483-26.483 26.483" fill="#fff"/></svg>