<svg xmlns="http://www.w3.org/2000/svg" viewBox="0 0 310.679 310.679"><path d="M193.208 220.93l39.811 68.956c46.424-26.861 77.66-77.054 77.66-134.546h-79.612c-.001 28.027-15.227 52.496-37.859 65.59z" fill="#009638"/><path d="M155.339 79.614c13.797 0 26.728 3.691 37.869 10.136l39.811-68.956C210.168 7.573 183.638.001 155.338.001c-28.299 0-54.828 7.571-77.679 20.792l39.812 68.956c11.14-6.444 24.073-10.135 37.868-10.135z" fill="#ff6d68"/><path d="M233.019 20.794L193.208 89.75c22.631 13.095 37.858 37.563 37.858 65.591h79.612c.001-57.493-31.236-107.686-77.659-134.547z" fill="#ffc843"/><path d="M117.471 89.75L77.659 20.794C31.235 47.655 0 97.848 0 155.34h79.612c0-28.027 15.228-52.496 37.859-65.59z" fill="#bf534f"/><path d="M79.612 155.34H0c0 57.492 31.235 107.685 77.658 134.545l39.812-68.956c-22.631-13.094-37.858-37.562-37.858-65.589z" fill="#0071ce"/><path d="M155.339 231.066c-13.796 0-26.729-3.691-37.869-10.137l-39.812 68.956c22.852 13.222 49.381 20.793 77.68 20.793 28.3 0 54.831-7.571 77.68-20.793l-39.811-68.956c-11.139 6.447-24.071 10.137-37.868 10.137z" fill="#5e96dc"/></svg>