<svg width="55" height="55" xmlns="http://www.w3.org/2000/svg"><defs><linearGradient x1="100%" y1="-2.705%" x2="50%" y2="100%" id="a"><stop stop-color="#C1C6D2" offset="0%"/><stop stop-color="#959AAC" offset="100%"/></linearGradient><linearGradient x1="50%" y1="0%" x2="50%" y2="100%" id="b"><stop stop-color="#A6ABBB" offset="0%"/><stop stop-color="#888DA1" offset="100%"/></linearGradient><linearGradient x1="50%" y1="0%" x2="50%" y2="100%" id="c"><stop stop-color="#9CA1B2" offset="0%"/><stop stop-color="#83889D" offset="100%"/></linearGradient></defs><g transform="translate(-1 1)" fill="none" fill-rule="evenodd"><circle stroke="#AEB3C1" stroke-width="2" cx="42" cy="13" r="3"/><path d="M54.51.319c-8.523 1.494-14.7 3.268-18.53 5.321-3.83 2.054-10.007 6.903-18.53 14.547l17.646 17.647c7.663-7.958 12.671-14.21 15.024-18.758 2.354-4.547 3.817-10.8 4.39-18.757z" stroke="url(#a)" stroke-width="2" stroke-linecap="round" stroke-linejoin="round"/><path d="M35.08 37.756L17.498 20.173l-10.435 5.78 7.458 2.72.092.581c.75 4.71 1.674 7.597 2.616 8.522.955.937 4.02 1.943 9.03 2.865l.565.104 2.773 7.69 5.483-10.68z" stroke="url(#b)" stroke-width="2"/><path d="M9.097 34.94L2.09 53.08l18.187-7.43c-3.969-.814-6.588-1.825-7.913-3.1-1.321-1.27-2.388-3.79-3.266-7.61z" stroke="url(#c)" stroke-width="2"/><circle fill="#9A9FB0" cx="26.5" cy="20.5" r="1.5"/><circle fill="#9A9FB0" cx="30.5" cy="24.5" r="1.5"/><circle fill="#9A9FB0" cx="34.5" cy="28.5" r="1.5"/></g></svg>