<svg id="CIPLEX" xmlns="http://www.w3.org/2000/svg" width="109.933" height="36.318" viewBox="0 0 1068.346 352.94">
  <metadata><?xpacket begin="﻿" id="W5M0MpCehiHzreSzNTczkc9d"?>
<x:xmpmeta xmlns:x="adobe:ns:meta/" x:xmptk="Adobe XMP Core 5.6-c138 79.159824, 2016/09/14-01:09:01        ">
   <rdf:RDF xmlns:rdf="http://www.w3.org/1999/02/22-rdf-syntax-ns#">
      <rdf:Description rdf:about=""/>
   </rdf:RDF>
</x:xmpmeta>
                                                                                                    
                                                                                                    
                                                                                                    
                                                                                                    
                                                                                                    
                                                                                                    
                                                                                                    
                                                                                                    
                                                                                                    
                                                                                                    
                                                                                                    
                                                                                                    
                                                                                                    
                                                                                                    
                                                                                                    
                                                                                                    
                                                                                                    
                                                                                                    
                                                                                                    
                                                                                                    
                           
<?xpacket end="w"?></metadata>
<defs>
    <style>
      .cls-1 {
        fill-rule: evenodd;
      }
    </style>
  </defs>
  <path class="cls-1" d="M1413.31,1007.7l92.77,139.45,36.45-54.36h59.65l-63.79,91.52,69.31,99.97h-60.48l-41.14-59.27-92.24,135.63h-60.99l122.57-173.88L1352.85,1007.7h60.46Z" transform="translate(-539.344 -1007.72)"/>
  <path id="CIPLE" class="cls-1" d="M640.024,1089.9q-28.263,0-51.264,12.55a94.775,94.775,0,0,0-36.213,34.17q-13.211,21.615-13.21,48.56,0,27.21,12.947,49.42a92.642,92.642,0,0,0,35.556,34.83q22.606,12.63,50.606,12.62a100.4,100.4,0,0,0,41.6-9.4,118.7,118.7,0,0,0,36.213-25.03l-28-29.58a76.057,76.057,0,0,1-22.806,16.17q-12.816,5.91-24.646,5.91a50.6,50.6,0,0,1-26.749-7.29,51.524,51.524,0,0,1-18.862-19.91,58.337,58.337,0,0,1-6.835-28.26,57.026,57.026,0,0,1,6.835-27.86,50.923,50.923,0,0,1,45.611-26.82,54.869,54.869,0,0,1,25.5,6.64,69.5,69.5,0,0,1,21.951,17.94L716,1121.7a109.632,109.632,0,0,0-75.975-31.8h0Zm151.288,190.05V1091.47H743.334v188.48h47.978Zm125.13-188.48H834.289v188.48h47.978v-52.97h34.175q36.015,0,56-18.33,19.978-18.345,19.98-51.46,0-31.545-19.98-48.63t-56-17.09h0Zm-34.175,37.72h31.809q15.774,0,24.383,7.5t8.61,22.08q0,14.85-8.544,22.67t-24.449,7.82H882.267v-60.07Zm188.353,110.67V1091.47h-47.98v188.48h127.9v-40.09h-79.92Zm255.66-110.67v-37.72H1178.66v188.48h150.51v-37.72H1226.64v-37.86h89.91v-37.72h-89.91v-37.46h99.64Z" transform="translate(-539.344 -1007.72)"/>
</svg>
