<svg width="153px" height="19px" viewBox="0 0 153 19" version="1.1" xmlns="http://www.w3.org/2000/svg" xmlns:xlink="http://www.w3.org/1999/xlink">
    <g stroke="none" stroke-width="1" fill="none" fill-rule="evenodd">
        <g transform="translate(-501.000000, -3530.000000)" fill-rule="nonzero" fill="#fff">
            <path d="M594.406211,3544.16071 L588.183731,3544.16071 L586.688503,3548.70713 L583.365927,3548.70713 L589.611597,3530.972 L592.980002,3530.972 L599.228156,3548.70713 L595.901715,3548.70713 L594.406211,3544.16071 Z M591.282134,3534.04583 C591.282134,3534.04583 590.881547,3535.79533 590.533967,3536.79224 L588.961438,3541.53605 L593.604762,3541.53605 L592.030024,3536.79224 C591.70453,3535.79091 591.332379,3534.04583 591.332379,3534.04583 L591.282134,3534.04583 Z M603.997923,3530.97559 L609.717116,3530.97559 C611.63971,3530.97559 612.514319,3531.12384 613.285676,3531.47777 C615.061397,3532.27259 616.184199,3533.97543 616.184199,3536.32235 C616.184199,3538.44566 615.060569,3540.41546 613.18684,3541.17191 L613.18684,3541.22215 C613.18684,3541.22215 613.435861,3541.46979 613.787858,3542.09704 L617.434823,3548.71431 L613.839484,3548.71431 L610.317029,3542.09593 L607.216971,3542.09593 L607.216971,3548.71237 L603.996543,3548.71237 L603.996543,3530.97366 L603.998475,3530.97366 L603.998475,3530.97559 L603.997923,3530.97559 Z M610.115218,3539.29266 C611.837932,3539.29266 612.91104,3538.26897 612.91104,3536.49545 C612.91104,3534.79786 612.188549,3533.74905 609.66549,3533.74905 L607.216418,3533.74905 L607.216418,3539.29514 L610.115218,3539.29266 Z M622.932051,3530.97559 L628.978118,3530.97559 C634.447738,3530.97559 638.017126,3534.22224 638.017126,3539.81499 C638.017126,3545.4152 634.448566,3548.7063 628.978118,3548.7063 L622.932051,3548.7063 L622.932051,3530.97559 Z M628.803086,3545.9356 C632.400357,3545.9356 634.69455,3543.81368 634.69455,3539.81527 C634.69455,3535.87263 632.344314,3533.74739 628.803086,3533.74739 L626.153583,3533.74739 L626.153583,3545.9356 L628.803086,3545.9356 L628.803086,3545.9356 Z M643.792362,3544.16071 C643.792362,3544.16071 645.715508,3546.03444 648.212616,3546.03444 C649.560972,3546.03444 650.78675,3545.33762 650.78675,3543.88905 C650.78675,3540.71224 642.417779,3541.26136 642.417779,3535.81934 C642.417779,3532.86947 644.964581,3530.67411 648.361422,3530.67411 C651.859858,3530.67411 653.656837,3532.57241 653.656837,3532.57241 L652.256855,3535.19679 C652.256855,3535.19679 650.554018,3533.64911 648.331605,3533.64911 C646.837757,3533.64911 645.659465,3534.52372 645.659465,3535.77241 C645.659465,3538.92161 654,3538.14529 654,3543.8181 C654,3546.63987 651.853784,3549.01192 648.156021,3549.01192 C644.210617,3549.01192 642.03845,3546.59211 642.03845,3546.59211 L643.792362,3544.16071 Z M558.054993,3530.97559 L561.381986,3530.972 L556.807405,3548.70713 L553.088384,3548.70713 L550.362409,3538.21872 C550.060657,3537.06942 549.911024,3535.89609 549.911024,3535.89609 L549.863815,3535.89609 C549.863815,3535.89609 549.712525,3537.06914 549.412983,3538.21872 L546.690044,3548.70713 L542.968262,3548.70713 L540.977753,3540.75393 L542.550835,3534.05743 L544.644044,3543.24386 C544.864353,3544.24049 544.942758,3545.11455 544.942758,3545.11455 L544.992452,3545.11455 C545.018127,3545.11455 545.041318,3544.26313 545.317394,3543.24386 L548.513527,3530.97559 L551.310454,3530.97559 L554.457169,3543.24386 C554.730761,3544.26562 554.755884,3545.11455 554.782111,3545.11455 L554.833461,3545.11455 C554.833461,3545.11455 554.908002,3544.24187 555.131623,3543.24386 L558.054993,3530.97559 Z M578.064438,3530.97559 L578.064438,3530.97559 L581.391155,3530.97559 L576.817126,3548.70879 L573.096724,3548.70879 L570.372129,3538.21983 C570.07231,3537.07025 569.922401,3535.89747 569.922401,3535.89747 L569.872707,3535.89747 C569.872707,3535.89747 569.720037,3537.07025 569.420771,3538.21983 L566.699212,3548.70879 L562.979087,3548.70879 L560.973118,3540.71196 L562.546199,3534.01491 L564.652108,3543.24386 C564.876006,3544.24049 564.950822,3545.11455 564.950822,3545.11455 L565.002173,3545.11455 C565.027848,3545.11455 565.049934,3544.26313 565.326838,3543.24386 L568.523799,3530.97559 L571.318242,3530.97559 L574.467994,3543.24386 C574.74269,3544.26562 574.766708,3545.11455 574.789347,3545.11455 L574.841801,3545.11455 C574.841801,3545.11455 574.916894,3544.24187 575.139963,3543.24386 L578.064438,3530.97559 Z M512.042216,3544.16071 L505.821669,3544.16071 L504.323404,3548.70713 L501,3548.70713 L507.245118,3530.97559 L510.618492,3530.97559 L516.862781,3548.70713 L513.539653,3548.70713 L512.042216,3544.16071 Z M508.919519,3534.04583 C508.919519,3534.04583 508.518105,3535.79533 508.170249,3536.79224 L506.596339,3541.53605 L511.242424,3541.53605 L509.666029,3536.79417 C509.34302,3535.79395 508.966728,3534.04583 508.966728,3534.04583 L508.919519,3534.04583 Z M534.449105,3543.24137 C534.723249,3544.26341 534.746992,3545.11317 534.771562,3545.11317 L534.822084,3545.11317 C534.822084,3545.11317 534.898833,3544.2369 535.121351,3543.24137 L538.043892,3530.972 L541.366745,3530.972 L536.79382,3548.70713 L533.073694,3548.70713 L530.352136,3538.21734 C530.053422,3537.06859 529.900199,3535.89527 529.900199,3535.89527 L529.850506,3535.89527 C529.850506,3535.89527 529.702529,3537.06859 529.400778,3538.21734 L526.677287,3548.7063 L522.955505,3548.7063 L518.510127,3530.97559 L521.832703,3530.97559 L524.631287,3543.24386 C524.856565,3544.24187 524.931105,3545.11455 524.931105,3545.11455 L524.981351,3545.11455 C525.008131,3545.11455 525.02856,3544.26562 525.306293,3543.24386 L528.50353,3530.97559 L531.296592,3530.97559 L534.449105,3543.24137 Z" id="awwwards"></path>
        </g>
    </g>
</svg>