<svg xmlns="http://www.w3.org/2000/svg" width="150.215" height="25.395" viewBox="0 0 287.437 48.594">
  <path fill="#fff" d="M627.412,38.49c-3.225,5.925-6.375,12.225-7.95,15.974-3.6,8.625.375,14.174,5.325,14.324,6,0.225,10.95-6.375,11.925-8.55,0.75-1.725,1.125-3.075.75-4.275-0.3-1.05-1.125-.9-1.575,0-2.775,5.625-7.05,10.95-10.425,10.8-3.15-.15-3.975-4.8-1.5-10.275,2.85-6.3,7.125-13.574,10.05-18.6a22.372,22.372,0,0,1,5.849-.3c1.125,0,1.425-.525.9-1.425-0.6-.975-1.725-2.325-4.649-2.25,1.8-3.9,1.8-6.375.975-8.475-0.375-.9-1.125-0.975-1.8,0a96.365,96.365,0,0,0-5.7,9.3,42.747,42.747,0,0,1-6.225.3c-1.125-.075-1.575.45-0.825,1.5A6.187,6.187,0,0,0,627.412,38.49Zm30.974,4.8c0.15-2.925-1.35-5.4-4.575-5.4-3.75,0-9.675,3.375-15.75,12.224-6.224,9.075-4.8,18.6,2.175,18.6,3.6,0,6.975-2.775,9.375-5.85,0,3.525,2.1,5.925,6.15,6.15,4.124,0.225,8.849-3.9,10.8-8.025a6.736,6.736,0,0,0,.675-4.65c-0.3-.675-0.825-0.6-1.2.075-2.625,5.175-6.749,10.275-9.824,10.425-2.55.15-2.475-3.075-.6-7.275,1.8-3.975,5.549-9.6,7.2-12.974,1.8-3.75,1.2-6.975.075-8.325q-0.787-1.013-1.8.45C660.26,39.915,659.361,41.49,658.386,43.29Zm-6.525,11.624c-3.825,6.6-7.725,11.4-10.8,11.324-2.925-.075-1.95-6.675,2.025-13.124,4.125-6.675,9.6-11.55,12-11.325C657.261,42.015,656.586,46.665,651.861,54.915Zm30.15-21.674c-0.975-2.025-3.15-2.925-4.35-1.65a4.655,4.655,0,0,0-.375,5.55c1.125,1.95,3.225,2.175,4.2,1.125A4.529,4.529,0,0,0,682.011,33.241ZM669.786,68.789c4.2,0,8.925-3.15,11.175-7.8,0.9-1.875,1.125-3.45.525-4.65-0.3-.6-0.825-0.675-1.2,0-2.25,5.175-6.375,10.125-9.75,10.275-2.4.15-2.55-2.775-.75-7.125,1.575-3.75,4.725-8.85,6.3-12.15,1.8-3.75,1.2-6.975.075-8.175-0.6-.675-1.125-0.45-1.8.45-2.775,3.9-7.725,12.749-9.6,18.224C662.661,63.989,664.086,68.789,669.786,68.789Zm17.249-16.124c6.675-4.35,15.075-13.35,17.4-22.574,0.9-3.525.45-6.3-1.725-8.25-1.05-.975-2.1-0.825-3.225.375-7.65,7.95-16.2,21.524-18.975,34.574-1.724,8.1,1.05,11.7,6.225,11.849,6,0.15,11.475-6.075,12.525-8.325a6.894,6.894,0,0,0,.75-4.65c-0.3-1.05-1.125-.975-1.65,0-2.925,5.775-8.175,11.175-11.775,10.875C683.21,66.239,684.035,60.014,687.035,52.665Zm1.35-3.225q0.787-1.8,1.8-3.6c5.175-9.6,10.725-17.924,11.7-17.324S698.66,41.115,688.385,49.44Zm57.748,11.849a6.534,6.534,0,0,0,.225-4.875c-0.3-.675-0.825-0.525-1.125.15-2.4,5.475-6.225,10.5-9.224,10.275-2.4-.15-3.3-3.075-1.875-7.2,1.35-3.975,4.949-9.075,8.474-13.05,2.25-2.55.375-6.075-.975-7.65-0.6-.75-1.275-0.525-2.25.15a19.579,19.579,0,0,1-8.1,3.6c1.5-3.975,2.85-9.45.225-9.375-3,.075-10.35,9.975-4.8,12.374a8.551,8.551,0,0,1-5.85,4.65c0-.45.15-0.825,0.15-1.2,0.375-5.475-1.8-5.925-3.6-8.25-1.575-2.025-2.775-2.775-5.024-2.55-4.5.375-9.225,4.575-12.075,9.75-3.225,5.925-4.35,12.45-1.125,16.874a8.166,8.166,0,0,0,9.525,3.225c5.55-1.8,10.2-9.525,11.7-15.9,4.125-.15,7.2-2.7,9.3-6.075a17.184,17.184,0,0,0,9.075-2.925c-3.15,3.675-7.875,9.225-9.375,14.249-1.875,6.15.45,11.175,6.225,11.474C739.758,69.239,744.108,65.789,746.133,61.289ZM716.209,49.14a5.574,5.574,0,0,1-1.874-4.95c0.3-2.175,1.949-2.775,2.249-.3A17.074,17.074,0,0,1,716.209,49.14Zm-0.675,2.175a31.4,31.4,0,0,1-2.624,6.15c-3.75,6.825-8.4,9.525-10.35,7.8s-0.9-8.55,2.325-14.25a27.718,27.718,0,0,1,5.775-7.05A9.3,9.3,0,0,0,715.534,51.315Zm57.224-4.95c1.125-3,1.35-5.925.075-8.025-0.45-.75-1.05-0.825-1.575,0-4.724,7.05-10.2,17.624-11.774,22.349-1.275,3.825-.9,6.3.75,7.725,0.675,0.6,1.125.3,1.425-.375,3-7.05,6.6-14.024,11.024-18.824,4.8-5.25,8.475-7.275,9.375-6.9,1.5,0.525-6.6,10.875-9.075,17.1-2.175,5.4-1.125,8.325.15,9.45,0.675,0.75,1.275.525,1.725-.375,3.15-7.05,6.825-14.249,13.05-20.474,4.875-4.875,7.424-5.7,8.024-5.475,1.125,0.375-5.549,8.775-8.324,15-2.775,6.15-.375,11.325,6.149,11.325,4.35,0,9.15-3.75,11.25-8.025,0.825-1.725,1.05-4.2.675-4.725a0.738,0.738,0,0,0-1.35.15c-2.925,5.25-6.3,10.2-9.375,10.275-2.7.075-3.749-3.375-1.649-7.65,1.874-3.75,5.549-8.7,6.9-12.074,1.5-3.75.9-8.175-1.8-8.25-2.475-.075-7.5,3.45-11.1,6.975,0.975-3.3-.375-7.275-2.925-7.35C781.683,38.115,776.058,42.54,772.758,46.365Zm54.824-3.075c0.15-2.925-1.35-5.4-4.575-5.4-3.75,0-9.675,3.375-15.749,12.224-6.225,9.075-4.8,18.6,2.175,18.6,3.6,0,6.974-2.775,9.374-5.85,0,3.525,2.1,5.925,6.15,6.15,4.125,0.225,8.85-3.9,10.8-8.025a6.736,6.736,0,0,0,.675-4.65c-0.3-.675-0.825-0.6-1.2.075-2.625,5.175-6.75,10.275-9.825,10.425-2.55.15-2.475-3.075-.6-7.275,1.8-3.975,5.55-9.6,7.2-12.974,1.8-3.75,1.2-6.975.075-8.325q-0.788-1.013-1.8.45C829.457,39.915,828.557,41.49,827.582,43.29Zm-6.525,11.624c-3.825,6.6-7.725,11.4-10.8,11.324-2.925-.075-1.95-6.675,2.025-13.124,4.124-6.675,9.6-11.55,12-11.325C826.457,42.015,825.782,46.665,821.057,54.915Zm30.15-21.674c-0.975-2.025-3.15-2.925-4.35-1.65a4.655,4.655,0,0,0-.375,5.55c1.125,1.95,3.225,2.175,4.2,1.125A4.529,4.529,0,0,0,851.207,33.241ZM838.982,68.789c4.2,0,8.925-3.15,11.175-7.8,0.9-1.875,1.125-3.45.525-4.65-0.3-.6-0.825-0.675-1.2,0-2.25,5.175-6.375,10.125-9.75,10.275-2.4.15-2.549-2.775-.75-7.125,1.575-3.75,4.725-8.85,6.3-12.15,1.8-3.75,1.2-6.975.075-8.175-0.6-.675-1.125-0.45-1.8.45-2.775,3.9-7.724,12.749-9.6,18.224C831.858,63.989,833.283,68.789,838.982,68.789Zm30.674-9.225c3.75-7.95,10.95-20.324,14.549-26.774,3.15-5.625,3.375-8.85,2.325-11.325-0.375-.975-1.05-1.05-1.8,0-2.7,3.825-8.4,14.025-12.449,21.749,0.075-2.775-1.425-5.1-4.5-5.1-3.75,0-9.75,3.375-15.674,12.075-6.15,9-4.8,18.524,2.175,18.524,3.524,0,6.9-2.775,9.3-5.775,0,3.525,2.025,5.775,6.075,6,4.125,0.225,8.775-3.75,10.8-7.875a6.553,6.553,0,0,0,.6-4.65c-0.3-.6-0.825-0.6-1.2.075-2.625,5.175-6.675,10.2-9.75,10.35C867.556,66.989,867.631,63.914,869.656,59.564ZM868.981,41.94c2.175,0.075,1.05,4.8-3.3,13.124-3.525,6.825-7.575,11.249-10.574,11.174-2.925-.075-2.1-6.6,1.95-13.049C861.181,46.59,866.656,41.865,868.981,41.94Zm16.874,12.9c5.25,4.275,10.275,2.325,13.95-2.175,3.15-3.825,3.75-8.4,2.4-10.2a13.956,13.956,0,0,0-4.425-3.9c-3.75-2.175-11.4,1.725-16.274,11.4s-1.575,19.049,7.949,18.9a19.006,19.006,0,0,0,14.7-8.1c1.35-1.95,1.575-4.05,1.275-4.65a0.665,0.665,0,0,0-1.275-.075c-3.225,4.95-8.7,10.95-14.925,10.65C885.256,66.464,883.456,61.739,885.855,54.84Zm0.675-1.65c0.15-.375.375-0.825,0.6-1.275,3.525-7.125,9.75-11.625,11.325-10.35,1.05,0.825-.6,4.725-3,7.875C893.28,52.29,890.205,55.515,886.53,53.19Z" transform="translate(-618.094 -20.719)"/>
</svg>
