<svg id="MCKLEIN" xmlns="http://www.w3.org/2000/svg" width="120.027" height="25" viewBox="0 0 343.13 71.47">
  <metadata><?xpacket begin="﻿" id="W5M0MpCehiHzreSzNTczkc9d"?>
<x:xmpmeta xmlns:x="adobe:ns:meta/" x:xmptk="Adobe XMP Core 5.6-c138 79.159824, 2016/09/14-01:09:01        ">
   <rdf:RDF xmlns:rdf="http://www.w3.org/1999/02/22-rdf-syntax-ns#">
      <rdf:Description rdf:about=""/>
   </rdf:RDF>
</x:xmpmeta>
                                                                                                    
                                                                                                    
                                                                                                    
                                                                                                    
                                                                                                    
                                                                                                    
                                                                                                    
                                                                                                    
                                                                                                    
                                                                                                    
                                                                                                    
                                                                                                    
                                                                                                    
                                                                                                    
                                                                                                    
                                                                                                    
                                                                                                    
                                                                                                    
                                                                                                    
                                                                                                    
                           
<?xpacket end="w"?></metadata>
<defs>
    <style>
      .cls-1, .cls-2 {
        fill: #030403;
      }

      .cls-1 {
        fill-rule: evenodd;
      }
    </style>
  </defs>
  <path id="McKlein-2" data-name="McKlein" class="cls-1" d="M1483,2991.5h-24.26l-10.55,36.21-10.56-36.21h-25.51v5.73c4.14,0,6.22,1.07,6.22,3.22v34.04c0,2.14-2.08,3.21-6.22,3.21v5.74h19.85v-5.74q-6.225,0-6.22-3.21v-33.34l13,42.29h11.39l13-42.29v33.34q0,3.21-6.22,3.21v5.74H1483v-5.74c-4.2,0-6.29-1.07-6.29-3.21v-34.04c0-2.15,2.09-3.22,6.29-3.22v-5.73Zm36.69,39.28c-0.37,2.71-1.37,4.66-3,5.88a9.243,9.243,0,0,1-5.66,1.81,8.175,8.175,0,0,1-7.03-3.28q-2.415-3.285-2.41-10.7,0-6.495,2.76-9.85a8.844,8.844,0,0,1,7.17-3.36q5.1,0,7.05,2.59a4.453,4.453,0,0,0-3.18,1.54,4.743,4.743,0,0,0,.14,6.5,5.378,5.378,0,0,0,4.02,1.39,5.168,5.168,0,0,0,4.3-1.71,6.469,6.469,0,0,0,1.37-4.16,9.206,9.206,0,0,0-1.23-4.79,9.99,9.99,0,0,0-3.42-3.42,17.141,17.141,0,0,0-5.21-2.06,28.722,28.722,0,0,0-6.57-.7,23.883,23.883,0,0,0-8.6,1.43,17.322,17.322,0,0,0-6.22,4.02,16.573,16.573,0,0,0-3.77,6.15,23.381,23.381,0,0,0-1.26,7.83,21.633,21.633,0,0,0,1.5,8.49,15.087,15.087,0,0,0,4.23,5.81,17.585,17.585,0,0,0,6.53,3.35,30.6,30.6,0,0,0,8.36,1.08,17.172,17.172,0,0,0,6.67-1.18,15.162,15.162,0,0,0,4.76-3.08,14.9,14.9,0,0,0,3.04-4.26,18.678,18.678,0,0,0,1.53-4.83Zm69.41-39.28h-24.74v5.73h1.89a2.885,2.885,0,0,1,2.09.67,2.156,2.156,0,0,1,.7,1.64,2.788,2.788,0,0,1-1.12,2.24l-16.28,13.63v-14.96q0-3.225,6.22-3.22v-5.73h-26.63v5.73c4.14,0,6.22,1.07,6.22,3.22v34.04c0,2.14-2.08,3.21-6.22,3.21v5.74h26.63v-5.74q-6.225,0-6.22-3.21v-10.63l8.11-6.85,10.2,17.13a4.389,4.389,0,0,1,.63,1.89c0,1.11-.82,1.67-2.45,1.67h-3.14v5.74h28.87v-5.74h-1.54a7.148,7.148,0,0,1-3.71-.8,8.689,8.689,0,0,1-2.58-2.76l-16.29-25.3,10-8.18a14.4,14.4,0,0,1,4.44-2.48,15.993,15.993,0,0,1,4.92-.95v-5.73Zm28.73-1.89H1599.1v5.59q5.94,0,5.94,3.14v36.22c0,2.1-1.98,3.14-5.94,3.14v5.74h24.67v-5.74c-3.96,0-5.94-1.04-5.94-3.14v-44.95Zm49.98,36.14q0-10.065-4.51-14.68t-13.87-4.61a24.259,24.259,0,0,0-8.39,1.33,16.114,16.114,0,0,0-9.96,9.89,22.744,22.744,0,0,0-1.3,7.93,22.2,22.2,0,0,0,1.65,9.16,15.1,15.1,0,0,0,4.44,5.83,16.828,16.828,0,0,0,6.46,3.12,32.049,32.049,0,0,0,7.65.9,19.062,19.062,0,0,0,6.68-1.08,15.653,15.653,0,0,0,4.93-2.87,14.471,14.471,0,0,0,3.25-4.05,17.16,17.16,0,0,0,1.71-4.72l-5.87-.63a8.753,8.753,0,0,1-3.6,5.42,10.686,10.686,0,0,1-6.05,1.78c-2.93,0-5.08-1.06-6.43-3.18s-2.07-5.3-2.16-9.54h25.37Zm-25.23-4.82c0.28-3.36,1.07-5.8,2.37-7.34a6.381,6.381,0,0,1,5.1-2.31,5.917,5.917,0,0,1,3.22.84,6.809,6.809,0,0,1,2.17,2.2,10.679,10.679,0,0,1,1.26,3.11,15.485,15.485,0,0,1,.41,3.5h-14.53Zm49.76-13.07h-18.73v5.59q5.94,0,5.94,3.21v17.91q0,3.135-5.94,3.13v5.74h24.68v-5.74q-6.09,0-5.95-3.13v-26.71Zm0.07-14.05a7.2,7.2,0,0,0-1.5-2.21,7.336,7.336,0,0,0-2.24-1.5,6.912,6.912,0,0,0-2.76-.56,6.652,6.652,0,0,0-2.72.56,8,8,0,0,0-2.24,1.5,6.98,6.98,0,0,0-1.54,2.21,6.652,6.652,0,0,0-.56,2.72,6.912,6.912,0,0,0,.56,2.76,7.28,7.28,0,0,0,3.78,3.81,6.493,6.493,0,0,0,2.72.56,6.973,6.973,0,0,0,5-2.09,7.526,7.526,0,0,0,1.5-2.28,6.745,6.745,0,0,0,.56-2.76A6.493,6.493,0,0,0,1692.41,2993.81Zm56.83,23.74c0-3.63-.96-6.26-2.87-7.92s-4.69-2.47-8.33-2.47a19.016,19.016,0,0,0-8.97,2.02,16.857,16.857,0,0,0-6.3,5.81l-0.02-7.13h-18.66v5.59c3.91,0,5.87,1.04,5.87,3.14v17.98q0,3.135-5.94,3.13v5.74h22.64v-5.74q-3.915,0-3.91-3.13V3023.7a13.526,13.526,0,0,1,3.7-6.27,7.931,7.931,0,0,1,5.46-2.3,3.7,3.7,0,0,1,3.35,2.02c0.79,1.35,1.19,3.48,1.19,6.41v11.01q0,3.135-3.98,3.13v5.74h22.78v-5.74c-4,0-6.01-1.04-6.01-3.13v-17.02Z" transform="translate(-1412.12 -2989.53)"/>
  <rect class="cls-2" x="76.88" y="62.47" width="37" height="9"/>
</svg>
