<svg id="METRIC" xmlns="http://www.w3.org/2000/svg" width="100.102" height="39.992" viewBox="0 0 346.374 138.38">
  <metadata><?xpacket begin="﻿" id="W5M0MpCehiHzreSzNTczkc9d"?>
<x:xmpmeta xmlns:x="adobe:ns:meta/" x:xmptk="Adobe XMP Core 5.6-c138 79.159824, 2016/09/14-01:09:01        ">
   <rdf:RDF xmlns:rdf="http://www.w3.org/1999/02/22-rdf-syntax-ns#">
      <rdf:Description rdf:about=""/>
   </rdf:RDF>
</x:xmpmeta>
                                                                                                    
                                                                                                    
                                                                                                    
                                                                                                    
                                                                                                    
                                                                                                    
                                                                                                    
                                                                                                    
                                                                                                    
                                                                                                    
                                                                                                    
                                                                                                    
                                                                                                    
                                                                                                    
                                                                                                    
                                                                                                    
                                                                                                    
                                                                                                    
                                                                                                    
                                                                                                    
                           
<?xpacket end="w"?></metadata>
<defs>
    <style>
      .cls-1 {
        fill: #030403;
        fill-rule: evenodd;
      }
    </style>
  </defs>
  <path id="METRIC-2" data-name="METRIC" class="cls-1" d="M814.394,2958.88l-14.66,19.53-14.661-19.53h-8.422v43.67h9.981v-27.26L799.3,2992.2h0.873l12.665-16.91v27.26h9.982v-43.67h-8.423Zm47.851,34.44v-8.05h15.908v-9.23H862.245v-7.92H887.2v-9.24H852.263v43.67h35.56v-9.23H862.245Zm88.776-34.44H911.093v9.24h14.973v34.43h9.982v-34.43h14.973v-9.24Zm56.019,27.45a13.774,13.774,0,0,0,8.24-12.97,14.159,14.159,0,0,0-2-7.52,13.9,13.9,0,0,0-5.49-5.12,16.558,16.558,0,0,0-7.8-1.84H976.6v43.67h9.982v-14.78h10.793l9.856,14.78h10.54v-0.5Zm-20.459-18.53h12.228a6.926,6.926,0,0,1,4.681,1.56,5.2,5.2,0,0,1,1.81,4.12,5.255,5.255,0,0,1-1.81,4.18,6.926,6.926,0,0,1-4.681,1.56H986.581V2967.8Zm56.769-8.92v43.67h9.98v-43.67h-9.98Zm59.96,44.48a23.367,23.367,0,0,0,12.1-3.08,18.444,18.444,0,0,0,7.61-8.21l-8.36-4.74a10.431,10.431,0,0,1-4.27,4.87,14.3,14.3,0,0,1-13.82.06,11.4,11.4,0,0,1-4.46-4.77,14.815,14.815,0,0,1-1.53-6.77,15.03,15.03,0,0,1,1.5-6.77,11.291,11.291,0,0,1,4.36-4.77,14.014,14.014,0,0,1,13.67.06,10.532,10.532,0,0,1,4.24,4.87l8.36-4.81a18.337,18.337,0,0,0-7.55-8.17,25.258,25.258,0,0,0-23.99-.06,20.471,20.471,0,0,0-7.92,8.17,23.915,23.915,0,0,0-2.78,11.48,23.616,23.616,0,0,0,2.81,11.42,20.791,20.791,0,0,0,8.02,8.2,23.42,23.42,0,0,0,12.01,3.02h0Z" transform="translate(-776.656 -2865)"/>
  <path class="cls-1" d="M794.511,2903.67H784V2933h10.513v-29.33Zm26.708-17.62H810.705V2933h10.514v-46.95Zm80.122,0H890.827V2933h10.514v-46.95ZM847.926,2865H837.412v68h10.514v-68Zm26.708,34H864.12v34h10.514v-34Zm53.415,4.67H917.534V2933h10.515v-29.33Zm26.707-17.62H944.242V2933h10.514v-46.95Zm80.124,0h-10.52V2933h10.52v-46.95ZM981.463,2865H970.949v68h10.514v-68Zm26.707,34H997.657v34h10.513v-34ZM1115,2886.05h-10.51V2933H1115v-46.95ZM1061.59,2865h-10.52v68h10.52v-68Zm26.7,34h-10.51v34h10.51v-34Z" transform="translate(-776.656 -2865)"/>
</svg>
