<svg id="PLAIN_VIEW" data-name="PLAIN VIEW" xmlns="http://www.w3.org/2000/svg" width="149.99" height="25.988" viewBox="0 0 432 74.85">
  <metadata><?xpacket begin="﻿" id="W5M0MpCehiHzreSzNTczkc9d"?>
<x:xmpmeta xmlns:x="adobe:ns:meta/" x:xmptk="Adobe XMP Core 5.6-c138 79.159824, 2016/09/14-01:09:01        ">
   <rdf:RDF xmlns:rdf="http://www.w3.org/1999/02/22-rdf-syntax-ns#">
      <rdf:Description rdf:about=""/>
   </rdf:RDF>
</x:xmpmeta>
                                                                                                    
                                                                                                    
                                                                                                    
                                                                                                    
                                                                                                    
                                                                                                    
                                                                                                    
                                                                                                    
                                                                                                    
                                                                                                    
                                                                                                    
                                                                                                    
                                                                                                    
                                                                                                    
                                                                                                    
                                                                                                    
                                                                                                    
                                                                                                    
                                                                                                    
                                                                                                    
                           
<?xpacket end="w"?></metadata>
<defs>
    <style>
      .cls-1 {
        fill: #030403;
        fill-rule: evenodd;
      }
    </style>
  </defs>
  <path id="PLAIN_VIEW-2" data-name="PLAIN VIEW" class="cls-1" d="M389.969,1521.12H372.4v31.94h7.3v-10.04h10.267a11.508,11.508,0,0,0,5.7-1.42,10.383,10.383,0,0,0,4.016-3.9,11.6,11.6,0,0,0,0-11.27,10.383,10.383,0,0,0-4.016-3.9,11.609,11.609,0,0,0-5.7-1.41h0Zm-0.867,15.46h-9.4v-8.94h9.4a4.781,4.781,0,0,1,3.4,1.26,4.513,4.513,0,0,1,0,6.43,4.774,4.774,0,0,1-3.4,1.25h0Zm38.65,9.72v-25.18h-7.3v31.94h25.1v-6.76h-17.8Zm55.033-25.18h-7.621l-13.735,31.53v0.41h7.849l2.281-5.57h14.876l2.282,5.57h7.849v-0.41Zm-8.67,20.07,4.882-12,4.883,12h-9.765Zm40.475-20.07v31.94h7.3v-31.94h-7.3Zm50.88,0v19.85L549.5,1521.12H543.11v31.94h7.3v-19.85l15.971,19.85h6.388v-31.94h-7.3Zm65.3,31.94h7.712l13.1-31.53v-0.41h-7.848l-9.081,23.27-9.081-23.27h-7.849v0.41Zm38.833-31.94v31.94h7.3v-31.94h-7.3Zm35.912,25.18v-5.88h11.637v-6.76H705.514v-5.79h18.253v-6.75H698.213v31.94h26.011v-6.76h-18.71Zm45.587,6.76h6.388l6.663-19.62,6.708,19.62H777.2l10.221-31.53v-0.41H779.8l-6.115,21.03-6.845-20.12h-5.339l-6.89,20.12-6.115-21.03h-7.621v0.41Z" transform="translate(-365 -1521.12)"/>
  <path class="cls-1" d="M365,1595.98s194.413-51.01,432,0C797,1595.98,578.989,1563,365,1595.98Z" transform="translate(-365 -1521.12)"/>
</svg>
