<?xml version="1.0" encoding="UTF-8"?>
<svg width="189px" height="23px" viewBox="0 0 189 23" version="1.1" xmlns="http://www.w3.org/2000/svg" xmlns:xlink="http://www.w3.org/1999/xlink">
    <!-- Generator: Sketch 46.2 (44496) - http://www.bohemiancoding.com/sketch -->
    <title>Shape</title>
    <desc>Created with Sketch.</desc>
    <defs></defs>
    <g id="Page-1" stroke="none" stroke-width="1" fill="none" fill-rule="evenodd">
        <g id="Modern-4" transform="translate(-626.000000, -108.000000)" fill="#FFFFFF">
            <g id="Restaurant-Header" transform="translate(155.000000, 94.000000)">
                <path d="M471,16.576 L478.392,16.576 C479.250671,16.576 480.113996,16.6366661 480.982,16.758 C481.850004,16.8793339 482.62933,17.1219982 483.32,17.486 C484.01067,17.8500018 484.570665,18.3586634 485,19.012 C485.429335,19.6653366 485.644,20.5333279 485.644,21.616 C485.644,22.7360056 485.331336,23.664663 484.706,24.402 C484.080664,25.139337 483.254672,25.6666651 482.228,25.984 L482.228,26.04 C482.881337,26.1333338 483.473997,26.315332 484.006,26.586 C484.538003,26.856668 484.995331,27.2019979 485.378,27.622 C485.760669,28.0420021 486.054666,28.531997 486.26,29.092 C486.465334,29.652003 486.568,30.24933 486.568,30.884 C486.568,31.929339 486.344002,32.801996 485.896,33.502 C485.447998,34.202003 484.869337,34.766665 484.16,35.196 C483.450663,35.625335 482.652671,35.933332 481.766,36.12 C480.879329,36.306668 479.997338,36.4 479.12,36.4 L471,36.4 L471,16.576 Z M475.368,24.5 L478.532,24.5 C478.868002,24.5 479.199332,24.462667 479.526,24.388 C479.852668,24.313333 480.146665,24.1920008 480.408,24.024 C480.669335,23.8559992 480.879333,23.6320014 481.038,23.352 C481.196667,23.0719986 481.276,22.736002 481.276,22.344 C481.276,21.9333313 481.187334,21.592668 481.01,21.322 C480.832666,21.051332 480.604001,20.8413341 480.324,20.692 C480.043999,20.5426659 479.726668,20.4353337 479.372,20.37 C479.017332,20.3046663 478.672002,20.272 478.336,20.272 L475.368,20.272 L475.368,24.5 Z M475.368,32.704 L479.288,32.704 C479.624002,32.704 479.964665,32.666667 480.31,32.592 C480.655335,32.517333 480.967999,32.386668 481.248,32.2 C481.528001,32.013332 481.756666,31.770668 481.934,31.472 C482.111334,31.173332 482.2,30.809335 482.2,30.38 C482.2,29.913331 482.083334,29.535335 481.85,29.246 C481.616666,28.956665 481.322668,28.737334 480.968,28.588 C480.613332,28.438666 480.230669,28.3360003 479.82,28.28 C479.409331,28.2239997 479.026668,28.196 478.672,28.196 L475.368,28.196 L475.368,32.704 Z M488.108,29.596 C488.108,28.513328 488.303998,27.5333377 488.696,26.656 C489.088002,25.7786623 489.624663,25.0273365 490.306,24.402 C490.987337,23.7766635 491.789995,23.2960017 492.714,22.96 C493.638005,22.6239983 494.622661,22.456 495.668,22.456 C496.713339,22.456 497.697995,22.6239983 498.622,22.96 C499.546005,23.2960017 500.348663,23.7766635 501.03,24.402 C501.711337,25.0273365 502.247998,25.7786623 502.64,26.656 C503.032002,27.5333377 503.228,28.513328 503.228,29.596 C503.228,30.678672 503.032002,31.658662 502.64,32.536 C502.247998,33.413338 501.711337,34.164664 501.03,34.79 C500.348663,35.415336 499.546005,35.895998 498.622,36.232 C497.697995,36.568002 496.713339,36.736 495.668,36.736 C494.622661,36.736 493.638005,36.568002 492.714,36.232 C491.789995,35.895998 490.987337,35.415336 490.306,34.79 C489.624663,34.164664 489.088002,33.413338 488.696,32.536 C488.303998,31.658662 488.108,30.678672 488.108,29.596 Z M492.308,29.596 C492.308,30.622672 492.601997,31.45333 493.19,32.088 C493.778003,32.72267 494.603995,33.04 495.668,33.04 C496.732005,33.04 497.557997,32.72267 498.146,32.088 C498.734003,31.45333 499.028,30.622672 499.028,29.596 C499.028,28.569328 498.734003,27.7386698 498.146,27.104 C497.557997,26.4693302 496.732005,26.152 495.668,26.152 C494.603995,26.152 493.778003,26.4693302 493.19,27.104 C492.601997,27.7386698 492.308,28.569328 492.308,29.596 Z M505.188,29.596 C505.188,28.513328 505.383998,27.5333377 505.776,26.656 C506.168002,25.7786623 506.704663,25.0273365 507.386,24.402 C508.067337,23.7766635 508.869995,23.2960017 509.794,22.96 C510.718005,22.6239983 511.702661,22.456 512.748,22.456 C513.793339,22.456 514.777995,22.6239983 515.702,22.96 C516.626005,23.2960017 517.428663,23.7766635 518.11,24.402 C518.791337,25.0273365 519.327998,25.7786623 519.72,26.656 C520.112002,27.5333377 520.308,28.513328 520.308,29.596 C520.308,30.678672 520.112002,31.658662 519.72,32.536 C519.327998,33.413338 518.791337,34.164664 518.11,34.79 C517.428663,35.415336 516.626005,35.895998 515.702,36.232 C514.777995,36.568002 513.793339,36.736 512.748,36.736 C511.702661,36.736 510.718005,36.568002 509.794,36.232 C508.869995,35.895998 508.067337,35.415336 507.386,34.79 C506.704663,34.164664 506.168002,33.413338 505.776,32.536 C505.383998,31.658662 505.188,30.678672 505.188,29.596 Z M509.388,29.596 C509.388,30.622672 509.681997,31.45333 510.27,32.088 C510.858003,32.72267 511.683995,33.04 512.748,33.04 C513.812005,33.04 514.637997,32.72267 515.226,32.088 C515.814003,31.45333 516.108,30.622672 516.108,29.596 C516.108,28.569328 515.814003,27.7386698 515.226,27.104 C514.637997,26.4693302 513.812005,26.152 512.748,26.152 C511.683995,26.152 510.858003,26.4693302 510.27,27.104 C509.681997,27.7386698 509.388,28.569328 509.388,29.596 Z M522.772,22.792 L526.804,22.792 L526.804,24.64 L526.86,24.64 C526.990667,24.3786654 527.177332,24.1173346 527.42,23.856 C527.662668,23.5946654 527.951998,23.3613344 528.288,23.156 C528.624002,22.9506656 529.006665,22.7826673 529.436,22.652 C529.865335,22.5213327 530.331997,22.456 530.836,22.456 C531.788005,22.456 532.632663,22.651998 533.37,23.044 C534.107337,23.436002 534.662665,24.0519958 535.036,24.892 C535.521336,24.0146623 536.10933,23.3893352 536.8,23.016 C537.49067,22.6426648 538.339995,22.456 539.348,22.456 C540.262671,22.456 541.032664,22.6099985 541.658,22.918 C542.283336,23.2260015 542.777998,23.6459973 543.142,24.178 C543.506002,24.7100027 543.767333,25.3353297 543.926,26.054 C544.084667,26.7726703 544.164,27.5426626 544.164,28.364 L544.164,36.4 L539.964,36.4 L539.964,28.476 C539.964,27.8413302 539.828668,27.2953356 539.558,26.838 C539.287332,26.3806644 538.80667,26.152 538.116,26.152 C537.630664,26.152 537.224668,26.2313325 536.898,26.39 C536.571332,26.5486675 536.310001,26.7679986 536.114,27.048 C535.917999,27.3280014 535.778,27.6546648 535.694,28.028 C535.61,28.401335 535.568,28.793331 535.568,29.204 L535.568,36.4 L531.368,36.4 L531.368,29.204 C531.368,28.961332 531.358667,28.662668 531.34,28.308 C531.321333,27.9533316 531.256001,27.6173349 531.144,27.3 C531.031999,26.9826651 530.850001,26.7120011 530.598,26.488 C530.345999,26.2639989 529.977336,26.152 529.492,26.152 C528.950664,26.152 528.512002,26.249999 528.176,26.446 C527.839998,26.642001 527.583334,26.9033317 527.406,27.23 C527.228666,27.5566683 527.112,27.9253313 527.056,28.336 C527,28.746669 526.972,29.175998 526.972,29.624 L526.972,36.4 L522.772,36.4 L522.772,22.792 Z M546.628,29.596 C546.628,28.513328 546.823998,27.5333377 547.216,26.656 C547.608002,25.7786623 548.144663,25.0273365 548.826,24.402 C549.507337,23.7766635 550.309995,23.2960017 551.234,22.96 C552.158005,22.6239983 553.142661,22.456 554.188,22.456 C555.233339,22.456 556.217995,22.6239983 557.142,22.96 C558.066005,23.2960017 558.868663,23.7766635 559.55,24.402 C560.231337,25.0273365 560.767998,25.7786623 561.16,26.656 C561.552002,27.5333377 561.748,28.513328 561.748,29.596 C561.748,30.678672 561.552002,31.658662 561.16,32.536 C560.767998,33.413338 560.231337,34.164664 559.55,34.79 C558.868663,35.415336 558.066005,35.895998 557.142,36.232 C556.217995,36.568002 555.233339,36.736 554.188,36.736 C553.142661,36.736 552.158005,36.568002 551.234,36.232 C550.309995,35.895998 549.507337,35.415336 548.826,34.79 C548.144663,34.164664 547.608002,33.413338 547.216,32.536 C546.823998,31.658662 546.628,30.678672 546.628,29.596 Z M550.828,29.596 C550.828,30.622672 551.121997,31.45333 551.71,32.088 C552.298003,32.72267 553.123995,33.04 554.188,33.04 C555.252005,33.04 556.077997,32.72267 556.666,32.088 C557.254003,31.45333 557.548,30.622672 557.548,29.596 C557.548,28.569328 557.254003,27.7386698 556.666,27.104 C556.077997,26.4693302 555.252005,26.152 554.188,26.152 C553.123995,26.152 552.298003,26.4693302 551.71,27.104 C551.121997,27.7386698 550.828,28.569328 550.828,29.596 Z M578.492,36.4 L574.628,36.4 L574.628,34.608 L574.572,34.608 C574.403999,34.850668 574.184668,35.097999 573.914,35.35 C573.643332,35.602001 573.326002,35.830666 572.962,36.036 C572.597998,36.241334 572.196669,36.409333 571.758,36.54 C571.319331,36.670667 570.866669,36.736 570.4,36.736 C569.391995,36.736 568.477337,36.563335 567.656,36.218 C566.834663,35.872665 566.130003,35.387336 565.542,34.762 C564.953997,34.136664 564.501335,33.394671 564.184,32.536 C563.866665,31.677329 563.708,30.734672 563.708,29.708 C563.708,28.755995 563.852665,27.8460043 564.142,26.978 C564.431335,26.1099957 564.841997,25.3400034 565.374,24.668 C565.906003,23.9959966 566.554663,23.4593353 567.32,23.058 C568.085337,22.6566647 568.953328,22.456 569.924,22.456 C570.801338,22.456 571.617996,22.591332 572.374,22.862 C573.130004,23.132668 573.750664,23.5946634 574.236,24.248 L574.292,24.248 L574.292,15.232 L578.492,15.232 L578.492,36.4 Z M574.628,29.596 C574.628,28.569328 574.334003,27.7386698 573.746,27.104 C573.157997,26.4693302 572.332005,26.152 571.268,26.152 C570.203995,26.152 569.378003,26.4693302 568.79,27.104 C568.201997,27.7386698 567.908,28.569328 567.908,29.596 C567.908,30.622672 568.201997,31.45333 568.79,32.088 C569.378003,32.72267 570.203995,33.04 571.268,33.04 C572.332005,33.04 573.157997,32.72267 573.746,32.088 C574.334003,31.45333 574.628,30.622672 574.628,29.596 Z M594.732,34.048 C594.059997,34.906671 593.210672,35.569331 592.184,36.036 C591.157328,36.502669 590.093339,36.736 588.992,36.736 C587.946661,36.736 586.962005,36.568002 586.038,36.232 C585.113995,35.895998 584.311337,35.415336 583.63,34.79 C582.948663,34.164664 582.412002,33.413338 582.02,32.536 C581.627998,31.658662 581.432,30.678672 581.432,29.596 C581.432,28.513328 581.627998,27.5333377 582.02,26.656 C582.412002,25.7786623 582.948663,25.0273365 583.63,24.402 C584.311337,23.7766635 585.113995,23.2960017 586.038,22.96 C586.962005,22.6239983 587.946661,22.456 588.992,22.456 C589.962672,22.456 590.844663,22.6239983 591.638,22.96 C592.431337,23.2960017 593.103331,23.7766635 593.654,24.402 C594.204669,25.0273365 594.629332,25.7786623 594.928,26.656 C595.226668,27.5333377 595.376,28.513328 595.376,29.596 L595.376,30.912 L585.632,30.912 C585.800001,31.714671 586.163997,32.353998 586.724,32.83 C587.284003,33.306002 587.974663,33.544 588.796,33.544 C589.48667,33.544 590.069998,33.390002 590.546,33.082 C591.022002,32.773998 591.437332,32.377336 591.792,31.892 L594.732,34.048 Z M591.176,28.056 C591.194667,27.3466631 590.961336,26.7400025 590.476,26.236 C589.990664,25.7319975 589.365337,25.48 588.6,25.48 C588.133331,25.48 587.722668,25.5546659 587.368,25.704 C587.013332,25.8533341 586.710001,26.0446655 586.458,26.278 C586.205999,26.5113345 586.010001,26.7819985 585.87,27.09 C585.729999,27.3980015 585.650667,27.7199983 585.632,28.056 L591.176,28.056 Z M597.924,22.792 L602.124,22.792 L602.124,24.976 L602.18,24.976 C602.628002,24.1359958 603.159997,23.5060021 603.776,23.086 C604.392003,22.6659979 605.166662,22.456 606.1,22.456 C606.342668,22.456 606.585332,22.4653332 606.828,22.484 C607.070668,22.5026668 607.294666,22.5399997 607.5,22.596 L607.5,26.432 C607.201332,26.3386662 606.907335,26.2686669 606.618,26.222 C606.328665,26.1753331 606.025335,26.152 605.708,26.152 C604.905329,26.152 604.270669,26.2639989 603.804,26.488 C603.337331,26.7120011 602.978001,27.0246647 602.726,27.426 C602.473999,27.8273353 602.310667,28.3079972 602.236,28.868 C602.161333,29.428003 602.124,30.043997 602.124,30.716 L602.124,36.4 L597.924,36.4 L597.924,22.792 Z M609.32,22.792 L613.352,22.792 L613.352,24.64 L613.408,24.64 C613.538667,24.3786654 613.725332,24.1173346 613.968,23.856 C614.210668,23.5946654 614.499998,23.3613344 614.836,23.156 C615.172002,22.9506656 615.554665,22.7826673 615.984,22.652 C616.413335,22.5213327 616.879997,22.456 617.384,22.456 C618.448005,22.456 619.306663,22.6193317 619.96,22.946 C620.613337,23.2726683 621.121998,23.7253304 621.486,24.304 C621.850002,24.8826696 622.097333,25.5639961 622.228,26.348 C622.358667,27.1320039 622.424,27.9813288 622.424,28.896 L622.424,36.4 L618.224,36.4 L618.224,29.736 C618.224,29.343998 618.21,28.938002 618.182,28.518 C618.154,28.0979979 618.070001,27.7106684 617.93,27.356 C617.789999,27.0013316 617.575335,26.7120011 617.286,26.488 C616.996665,26.2639989 616.581336,26.152 616.04,26.152 C615.498664,26.152 615.060002,26.249999 614.724,26.446 C614.387998,26.642001 614.131334,26.9033317 613.954,27.23 C613.776666,27.5566683 613.66,27.9253313 613.604,28.336 C613.548,28.746669 613.52,29.175998 613.52,29.624 L613.52,36.4 L609.32,36.4 L609.32,22.792 Z M656.836,20.412 L659.776,16.688 L645.02,16.688 L645.636,15.876 L647.12,14 L642.36,14 L640.876,15.876 L635.052,23.324 L632.14,27.076 L646.784,27.076 L643.34,31.5 L640.96,34.552 L639.504,36.4 L644.264,36.4 L645.692,34.552 L651.572,27.076 L654.54,23.324 L639.812,23.324 L642.08,20.412 L656.836,20.412 Z" id="Shape"></path>
            </g>
        </g>
    </g>
</svg>