<?xml version="1.0" encoding="UTF-8"?>
<svg width="189px" height="23px" viewBox="0 0 189 23" version="1.1" xmlns="http://www.w3.org/2000/svg" xmlns:xlink="http://www.w3.org/1999/xlink">
    <!-- Generator: Sketch 46.2 (44496) - http://www.bohemiancoding.com/sketch -->
    <title>Shape</title>
    <desc>Created with Sketch.</desc>
    <defs></defs>
    <g id="Page-1" stroke="none" stroke-width="1" fill="none" fill-rule="evenodd">
        <g id="Modern-4" transform="translate(-626.000000, -7850.000000)" fill="#282D25">
            <g id="footer" transform="translate(1.000000, 7756.000000)">
                <g transform="translate(470.000000, 94.000000)" id="Shape">
                    <path d="M155,2.576 L162.392,2.576 C163.250671,2.576 164.113996,2.6366661 164.982,2.758 C165.850004,2.8793339 166.62933,3.1219982 167.32,3.486 C168.01067,3.8500018 168.570665,4.3586634 169,5.012 C169.429335,5.6653366 169.644,6.5333279 169.644,7.616 C169.644,8.7360056 169.331336,9.664663 168.706,10.402 C168.080664,11.139337 167.254672,11.6666651 166.228,11.984 L166.228,12.04 C166.881337,12.1333338 167.473997,12.315332 168.006,12.586 C168.538003,12.856668 168.995331,13.2019979 169.378,13.622 C169.760669,14.0420021 170.054666,14.531997 170.26,15.092 C170.465334,15.652003 170.568,16.24933 170.568,16.884 C170.568,17.929339 170.344002,18.801996 169.896,19.502 C169.447998,20.202003 168.869337,20.766665 168.16,21.196 C167.450663,21.625335 166.652671,21.933332 165.766,22.12 C164.879329,22.306668 163.997338,22.4 163.12,22.4 L155,22.4 L155,2.576 Z M159.368,10.5 L162.532,10.5 C162.868002,10.5 163.199332,10.462667 163.526,10.388 C163.852668,10.313333 164.146665,10.1920008 164.408,10.024 C164.669335,9.8559992 164.879333,9.6320014 165.038,9.352 C165.196667,9.0719986 165.276,8.736002 165.276,8.344 C165.276,7.9333313 165.187334,7.592668 165.01,7.322 C164.832666,7.051332 164.604001,6.8413341 164.324,6.692 C164.043999,6.5426659 163.726668,6.4353337 163.372,6.37 C163.017332,6.3046663 162.672002,6.272 162.336,6.272 L159.368,6.272 L159.368,10.5 Z M159.368,18.704 L163.288,18.704 C163.624002,18.704 163.964665,18.666667 164.31,18.592 C164.655335,18.517333 164.967999,18.386668 165.248,18.2 C165.528001,18.013332 165.756666,17.770668 165.934,17.472 C166.111334,17.173332 166.2,16.809335 166.2,16.38 C166.2,15.913331 166.083334,15.535335 165.85,15.246 C165.616666,14.956665 165.322668,14.737334 164.968,14.588 C164.613332,14.438666 164.230669,14.3360003 163.82,14.28 C163.409331,14.2239997 163.026668,14.196 162.672,14.196 L159.368,14.196 L159.368,18.704 Z M172.108,15.596 C172.108,14.513328 172.303998,13.5333377 172.696,12.656 C173.088002,11.7786623 173.624663,11.0273365 174.306,10.402 C174.987337,9.7766635 175.789995,9.2960017 176.714,8.96 C177.638005,8.6239983 178.622661,8.456 179.668,8.456 C180.713339,8.456 181.697995,8.6239983 182.622,8.96 C183.546005,9.2960017 184.348663,9.7766635 185.03,10.402 C185.711337,11.0273365 186.247998,11.7786623 186.64,12.656 C187.032002,13.5333377 187.228,14.513328 187.228,15.596 C187.228,16.678672 187.032002,17.658662 186.64,18.536 C186.247998,19.413338 185.711337,20.164664 185.03,20.79 C184.348663,21.415336 183.546005,21.895998 182.622,22.232 C181.697995,22.568002 180.713339,22.736 179.668,22.736 C178.622661,22.736 177.638005,22.568002 176.714,22.232 C175.789995,21.895998 174.987337,21.415336 174.306,20.79 C173.624663,20.164664 173.088002,19.413338 172.696,18.536 C172.303998,17.658662 172.108,16.678672 172.108,15.596 Z M176.308,15.596 C176.308,16.622672 176.601997,17.45333 177.19,18.088 C177.778003,18.72267 178.603995,19.04 179.668,19.04 C180.732005,19.04 181.557997,18.72267 182.146,18.088 C182.734003,17.45333 183.028,16.622672 183.028,15.596 C183.028,14.569328 182.734003,13.7386698 182.146,13.104 C181.557997,12.4693302 180.732005,12.152 179.668,12.152 C178.603995,12.152 177.778003,12.4693302 177.19,13.104 C176.601997,13.7386698 176.308,14.569328 176.308,15.596 Z M189.188,15.596 C189.188,14.513328 189.383998,13.5333377 189.776,12.656 C190.168002,11.7786623 190.704663,11.0273365 191.386,10.402 C192.067337,9.7766635 192.869995,9.2960017 193.794,8.96 C194.718005,8.6239983 195.702661,8.456 196.748,8.456 C197.793339,8.456 198.777995,8.6239983 199.702,8.96 C200.626005,9.2960017 201.428663,9.7766635 202.11,10.402 C202.791337,11.0273365 203.327998,11.7786623 203.72,12.656 C204.112002,13.5333377 204.308,14.513328 204.308,15.596 C204.308,16.678672 204.112002,17.658662 203.72,18.536 C203.327998,19.413338 202.791337,20.164664 202.11,20.79 C201.428663,21.415336 200.626005,21.895998 199.702,22.232 C198.777995,22.568002 197.793339,22.736 196.748,22.736 C195.702661,22.736 194.718005,22.568002 193.794,22.232 C192.869995,21.895998 192.067337,21.415336 191.386,20.79 C190.704663,20.164664 190.168002,19.413338 189.776,18.536 C189.383998,17.658662 189.188,16.678672 189.188,15.596 Z M193.388,15.596 C193.388,16.622672 193.681997,17.45333 194.27,18.088 C194.858003,18.72267 195.683995,19.04 196.748,19.04 C197.812005,19.04 198.637997,18.72267 199.226,18.088 C199.814003,17.45333 200.108,16.622672 200.108,15.596 C200.108,14.569328 199.814003,13.7386698 199.226,13.104 C198.637997,12.4693302 197.812005,12.152 196.748,12.152 C195.683995,12.152 194.858003,12.4693302 194.27,13.104 C193.681997,13.7386698 193.388,14.569328 193.388,15.596 Z M206.772,8.792 L210.804,8.792 L210.804,10.64 L210.86,10.64 C210.990667,10.3786654 211.177332,10.1173346 211.42,9.856 C211.662668,9.5946654 211.951998,9.3613344 212.288,9.156 C212.624002,8.9506656 213.006665,8.7826673 213.436,8.652 C213.865335,8.5213327 214.331997,8.456 214.836,8.456 C215.788005,8.456 216.632663,8.651998 217.37,9.044 C218.107337,9.436002 218.662665,10.0519958 219.036,10.892 C219.521336,10.0146623 220.10933,9.3893352 220.8,9.016 C221.49067,8.6426648 222.339995,8.456 223.348,8.456 C224.262671,8.456 225.032664,8.6099985 225.658,8.918 C226.283336,9.2260015 226.777998,9.6459973 227.142,10.178 C227.506002,10.7100027 227.767333,11.3353297 227.926,12.054 C228.084667,12.7726703 228.164,13.5426626 228.164,14.364 L228.164,22.4 L223.964,22.4 L223.964,14.476 C223.964,13.8413302 223.828668,13.2953356 223.558,12.838 C223.287332,12.3806644 222.80667,12.152 222.116,12.152 C221.630664,12.152 221.224668,12.2313325 220.898,12.39 C220.571332,12.5486675 220.310001,12.7679986 220.114,13.048 C219.917999,13.3280014 219.778,13.6546648 219.694,14.028 C219.61,14.401335 219.568,14.793331 219.568,15.204 L219.568,22.4 L215.368,22.4 L215.368,15.204 C215.368,14.961332 215.358667,14.662668 215.34,14.308 C215.321333,13.9533316 215.256001,13.6173349 215.144,13.3 C215.031999,12.9826651 214.850001,12.7120011 214.598,12.488 C214.345999,12.2639989 213.977336,12.152 213.492,12.152 C212.950664,12.152 212.512002,12.249999 212.176,12.446 C211.839998,12.642001 211.583334,12.9033317 211.406,13.23 C211.228666,13.5566683 211.112,13.9253313 211.056,14.336 C211,14.746669 210.972,15.175998 210.972,15.624 L210.972,22.4 L206.772,22.4 L206.772,8.792 Z M230.628,15.596 C230.628,14.513328 230.823998,13.5333377 231.216,12.656 C231.608002,11.7786623 232.144663,11.0273365 232.826,10.402 C233.507337,9.7766635 234.309995,9.2960017 235.234,8.96 C236.158005,8.6239983 237.142661,8.456 238.188,8.456 C239.233339,8.456 240.217995,8.6239983 241.142,8.96 C242.066005,9.2960017 242.868663,9.7766635 243.55,10.402 C244.231337,11.0273365 244.767998,11.7786623 245.16,12.656 C245.552002,13.5333377 245.748,14.513328 245.748,15.596 C245.748,16.678672 245.552002,17.658662 245.16,18.536 C244.767998,19.413338 244.231337,20.164664 243.55,20.79 C242.868663,21.415336 242.066005,21.895998 241.142,22.232 C240.217995,22.568002 239.233339,22.736 238.188,22.736 C237.142661,22.736 236.158005,22.568002 235.234,22.232 C234.309995,21.895998 233.507337,21.415336 232.826,20.79 C232.144663,20.164664 231.608002,19.413338 231.216,18.536 C230.823998,17.658662 230.628,16.678672 230.628,15.596 Z M234.828,15.596 C234.828,16.622672 235.121997,17.45333 235.71,18.088 C236.298003,18.72267 237.123995,19.04 238.188,19.04 C239.252005,19.04 240.077997,18.72267 240.666,18.088 C241.254003,17.45333 241.548,16.622672 241.548,15.596 C241.548,14.569328 241.254003,13.7386698 240.666,13.104 C240.077997,12.4693302 239.252005,12.152 238.188,12.152 C237.123995,12.152 236.298003,12.4693302 235.71,13.104 C235.121997,13.7386698 234.828,14.569328 234.828,15.596 Z M262.492,22.4 L258.628,22.4 L258.628,20.608 L258.572,20.608 C258.403999,20.850668 258.184668,21.097999 257.914,21.35 C257.643332,21.602001 257.326002,21.830666 256.962,22.036 C256.597998,22.241334 256.196669,22.409333 255.758,22.54 C255.319331,22.670667 254.866669,22.736 254.4,22.736 C253.391995,22.736 252.477337,22.563335 251.656,22.218 C250.834663,21.872665 250.130003,21.387336 249.542,20.762 C248.953997,20.136664 248.501335,19.394671 248.184,18.536 C247.866665,17.677329 247.708,16.734672 247.708,15.708 C247.708,14.755995 247.852665,13.8460043 248.142,12.978 C248.431335,12.1099957 248.841997,11.3400034 249.374,10.668 C249.906003,9.9959966 250.554663,9.4593353 251.32,9.058 C252.085337,8.6566647 252.953328,8.456 253.924,8.456 C254.801338,8.456 255.617996,8.591332 256.374,8.862 C257.130004,9.132668 257.750664,9.5946634 258.236,10.248 L258.292,10.248 L258.292,1.232 L262.492,1.232 L262.492,22.4 Z M258.628,15.596 C258.628,14.569328 258.334003,13.7386698 257.746,13.104 C257.157997,12.4693302 256.332005,12.152 255.268,12.152 C254.203995,12.152 253.378003,12.4693302 252.79,13.104 C252.201997,13.7386698 251.908,14.569328 251.908,15.596 C251.908,16.622672 252.201997,17.45333 252.79,18.088 C253.378003,18.72267 254.203995,19.04 255.268,19.04 C256.332005,19.04 257.157997,18.72267 257.746,18.088 C258.334003,17.45333 258.628,16.622672 258.628,15.596 Z M278.732,20.048 C278.059997,20.906671 277.210672,21.569331 276.184,22.036 C275.157328,22.502669 274.093339,22.736 272.992,22.736 C271.946661,22.736 270.962005,22.568002 270.038,22.232 C269.113995,21.895998 268.311337,21.415336 267.63,20.79 C266.948663,20.164664 266.412002,19.413338 266.02,18.536 C265.627998,17.658662 265.432,16.678672 265.432,15.596 C265.432,14.513328 265.627998,13.5333377 266.02,12.656 C266.412002,11.7786623 266.948663,11.0273365 267.63,10.402 C268.311337,9.7766635 269.113995,9.2960017 270.038,8.96 C270.962005,8.6239983 271.946661,8.456 272.992,8.456 C273.962672,8.456 274.844663,8.6239983 275.638,8.96 C276.431337,9.2960017 277.103331,9.7766635 277.654,10.402 C278.204669,11.0273365 278.629332,11.7786623 278.928,12.656 C279.226668,13.5333377 279.376,14.513328 279.376,15.596 L279.376,16.912 L269.632,16.912 C269.800001,17.714671 270.163997,18.353998 270.724,18.83 C271.284003,19.306002 271.974663,19.544 272.796,19.544 C273.48667,19.544 274.069998,19.390002 274.546,19.082 C275.022002,18.773998 275.437332,18.377336 275.792,17.892 L278.732,20.048 Z M275.176,14.056 C275.194667,13.3466631 274.961336,12.7400025 274.476,12.236 C273.990664,11.7319975 273.365337,11.48 272.6,11.48 C272.133331,11.48 271.722668,11.5546659 271.368,11.704 C271.013332,11.8533341 270.710001,12.0446655 270.458,12.278 C270.205999,12.5113345 270.010001,12.7819985 269.87,13.09 C269.729999,13.3980015 269.650667,13.7199983 269.632,14.056 L275.176,14.056 Z M281.924,8.792 L286.124,8.792 L286.124,10.976 L286.18,10.976 C286.628002,10.1359958 287.159997,9.5060021 287.776,9.086 C288.392003,8.6659979 289.166662,8.456 290.1,8.456 C290.342668,8.456 290.585332,8.4653332 290.828,8.484 C291.070668,8.5026668 291.294666,8.5399997 291.5,8.596 L291.5,12.432 C291.201332,12.3386662 290.907335,12.2686669 290.618,12.222 C290.328665,12.1753331 290.025335,12.152 289.708,12.152 C288.905329,12.152 288.270669,12.2639989 287.804,12.488 C287.337331,12.7120011 286.978001,13.0246647 286.726,13.426 C286.473999,13.8273353 286.310667,14.3079972 286.236,14.868 C286.161333,15.428003 286.124,16.043997 286.124,16.716 L286.124,22.4 L281.924,22.4 L281.924,8.792 Z M293.32,8.792 L297.352,8.792 L297.352,10.64 L297.408,10.64 C297.538667,10.3786654 297.725332,10.1173346 297.968,9.856 C298.210668,9.5946654 298.499998,9.3613344 298.836,9.156 C299.172002,8.9506656 299.554665,8.7826673 299.984,8.652 C300.413335,8.5213327 300.879997,8.456 301.384,8.456 C302.448005,8.456 303.306663,8.6193317 303.96,8.946 C304.613337,9.2726683 305.121998,9.7253304 305.486,10.304 C305.850002,10.8826696 306.097333,11.5639961 306.228,12.348 C306.358667,13.1320039 306.424,13.9813288 306.424,14.896 L306.424,22.4 L302.224,22.4 L302.224,15.736 C302.224,15.343998 302.21,14.938002 302.182,14.518 C302.154,14.0979979 302.070001,13.7106684 301.93,13.356 C301.789999,13.0013316 301.575335,12.7120011 301.286,12.488 C300.996665,12.2639989 300.581336,12.152 300.04,12.152 C299.498664,12.152 299.060002,12.249999 298.724,12.446 C298.387998,12.642001 298.131334,12.9033317 297.954,13.23 C297.776666,13.5566683 297.66,13.9253313 297.604,14.336 C297.548,14.746669 297.52,15.175998 297.52,15.624 L297.52,22.4 L293.32,22.4 L293.32,8.792 Z M340.836,6.412 L343.776,2.688 L329.02,2.688 L329.636,1.876 L331.12,0 L326.36,0 L324.876,1.876 L319.052,9.324 L316.14,13.076 L330.784,13.076 L327.34,17.5 L324.96,20.552 L323.504,22.4 L328.264,22.4 L329.692,20.552 L335.572,13.076 L338.54,9.324 L323.812,9.324 L326.08,6.412 L340.836,6.412 Z"></path>
                </g>
            </g>
        </g>
    </g>
</svg>