<svg xmlns="http://www.w3.org/2000/svg" xmlns:xlink="http://www.w3.org/1999/xlink" width="119.366" height="18.377" viewBox="0 0 130.312 20.062">
  <metadata><?xpacket begin="﻿" id="W5M0MpCehiHzreSzNTczkc9d"?>
<x:xmpmeta xmlns:x="adobe:ns:meta/" x:xmptk="Adobe XMP Core 5.6-c138 79.159824, 2016/09/14-01:09:01        ">
   <rdf:RDF xmlns:rdf="http://www.w3.org/1999/02/22-rdf-syntax-ns#">
      <rdf:Description rdf:about=""/>
   </rdf:RDF>
</x:xmpmeta>
                                                                                                    
                                                                                                    
                                                                                                    
                                                                                                    
                                                                                                    
                                                                                                    
                                                                                                    
                                                                                                    
                                                                                                    
                                                                                                    
                                                                                                    
                                                                                                    
                                                                                                    
                                                                                                    
                                                                                                    
                                                                                                    
                                                                                                    
                                                                                                    
                                                                                                    
                                                                                                    
                           
<?xpacket end="w"?></metadata>
<defs>
    <style>
      .cls-1 {
        filter: url(#filter);
      }

      .cls-2 {
        fill: #fff;
      }

      .cls-2, .cls-3 {
        fill-rule: evenodd;
      }

      .cls-3 {
        fill: #7354ef;
      }
    </style>
    <filter id="filter" filterUnits="userSpaceOnUse">
      <feFlood result="flood"/>
      <feComposite result="composite" operator="in" in2="SourceGraphic"/>
      <feBlend result="blend" in2="SourceGraphic"/>
    </filter>
  </defs>
  <g class="cls-1">
    <path class="cls-2" d="M403.8,488.345l1.374-1.357,5.828,5.759-1.374,1.357Z" transform="translate(-280.688 -487)"/>
    <path id="Shape_3_copy" data-name="Shape 3 copy" class="cls-2" d="M411.005,488.345l-1.374-1.357-5.828,5.759,1.374,1.357Z" transform="translate(-280.688 -487)"/>
    <path id="bwork" class="cls-3" d="M280.7,506.654h11.961a5.83,5.83,0,0,0,2.714-.635,4.869,4.869,0,0,0,1.944-1.8,5,5,0,0,0,.715-2.673,4.546,4.546,0,0,0-3.294-4.617,4.54,4.54,0,0,0,1.715-1.634,4.6,4.6,0,0,0,.634-2.443,4.976,4.976,0,0,0-2.565-4.415,5.6,5.6,0,0,0-2.808-.688H280.7v18.9Zm5.13-11.421v-3.4h4.158a2.2,2.2,0,0,1,1.472.432,1.863,1.863,0,0,1,0,2.538,2.2,2.2,0,0,1-1.472.432h-4.158Zm0,7.317v-3.429h5.022a2.3,2.3,0,0,1,1.526.445,1.587,1.587,0,0,1,.526,1.283,1.553,1.553,0,0,1-.526,1.255,2.3,2.3,0,0,1-1.526.446h-5.022Zm21.087,4.1h4.32l3.456-10.26,3.456,10.26H322.5L328.6,488v-0.243h-5.373l-3.159,11.1L316.5,488.294h-3.618l-3.537,10.557-3.159-11.1h-5.4V488Zm34.722,0.405a10.664,10.664,0,0,0,5.373-1.323,9.141,9.141,0,0,0,3.564-3.578,10.5,10.5,0,0,0,0-9.909,9.139,9.139,0,0,0-3.564-3.577,11.572,11.572,0,0,0-10.746,0,9.232,9.232,0,0,0-3.577,3.577,10.4,10.4,0,0,0,0,9.909,9.235,9.235,0,0,0,3.577,3.578,10.664,10.664,0,0,0,5.373,1.323h0Zm0-4.806a5.241,5.241,0,0,1-2.646-.648,4.4,4.4,0,0,1-1.741-1.8,5.887,5.887,0,0,1,0-5.211,4.489,4.489,0,0,1,1.741-1.809,5.627,5.627,0,0,1,5.292,0,4.4,4.4,0,0,1,1.728,1.809,5.587,5.587,0,0,1,.594,2.606,5.079,5.079,0,0,1-1.336,3.631,4.753,4.753,0,0,1-3.632,1.418h0Zm29.133-2.349a5.863,5.863,0,0,0,2.457-2.268,6.483,6.483,0,0,0,.891-3.4,6.363,6.363,0,0,0-.891-3.362,6.187,6.187,0,0,0-2.443-2.3,7.347,7.347,0,0,0-3.5-.823H357.111v18.9h5.13v-5.94h3.618l3.942,5.94h5.4v-0.243Zm-8.532-7.668h4.374a2.53,2.53,0,0,1,1.728.567,2.152,2.152,0,0,1,0,3.078,2.53,2.53,0,0,1-1.728.567h-4.374v-4.212Zm29.133,3.537,6.75-7.776v-0.243h-6.075L385,496.1v-8.343h-5.13v18.9H385v-3.51l3.051-3.537,4.617,7.047h5.616v-0.243Z" transform="translate(-280.688 -487)"/>
  </g>
</svg>
