<svg xmlns="http://www.w3.org/2000/svg" width="74" height="74" viewBox="0 0 74 74">
  <defs>
    <linearGradient id="boo-logo-a" x1="8.158%" y1="89.436%" y2="37.913%">
      <stop offset="0%" stop-color="#00FBF8" stop-opacity=".666"/>
      <stop offset="52.844%" stop-color="#648BFB" stop-opacity=".815"/>
      <stop offset="100%" stop-color="#DF00FF"/>
    </linearGradient>
  </defs>
  <g fill="none" fill-rule="evenodd" transform="translate(2 2)">
    <circle cx="35" cy="35" r="35" stroke="url(#boo-logo-a)" stroke-width="4"/>
    <path fill="#FFF" d="M27.59,47 L27.59,22.5 L35.535,22.5 C39.525,22.5 43.34,24.355 43.34,29.5 C43.34,32.475 41.135,33.91 40.785,34.015 C41.135,34.085 44.6,35.345 44.6,39.755 C44.6,44.06 41.03,47 36.41,47 L27.59,47 Z M36.27,43.01 C38.58,43.01 40.33,42.065 40.33,39.755 C40.33,37.445 38.58,36.5 36.27,36.5 L31.79,36.5 L31.79,43.01 L36.27,43.01 Z M31.79,32.51 L35.395,32.51 C37.74,32.51 39.07,31.635 39.07,29.5 C39.07,27.365 37.46,26.49 35.395,26.49 L31.79,26.49 L31.79,32.51 Z"/>
  </g>
</svg>
