<svg xmlns="http://www.w3.org/2000/svg" width="134" height="17" viewBox="0 0 134 17">
  <path fill="#000" fill-rule="evenodd" d="M132.31,10.78 C131.883331,10.4333316 131.456669,10.1766675 131.03,10.01 C130.603331,9.8433325 130.190002,9.76 129.79,9.76 C129.283331,9.76 128.870002,9.8799988 128.55,10.12 C128.229998,10.3600012 128.07,10.6733314 128.07,11.06 C128.07,11.326668 128.149999,11.5466658 128.31,11.72 C128.470001,11.8933342 128.679999,12.0433327 128.94,12.17 C129.200001,12.2966673 129.493332,12.4066662 129.82,12.5 C130.146668,12.5933338 130.469998,12.6933328 130.79,12.8 C132.070006,13.2266688 133.006664,13.7966631 133.6,14.51 C134.193336,15.2233369 134.49,16.1533276 134.49,17.3 C134.49,18.0733372 134.360001,18.7733302 134.1,19.4 C133.839999,20.0266698 133.460003,20.5633311 132.96,21.01 C132.459998,21.4566689 131.84667,21.8033321 131.12,22.05 C130.39333,22.2966679 129.570005,22.42 128.65,22.42 C126.743324,22.42 124.976675,21.853339 123.35,20.72 L125.03,17.56 C125.61667,18.0800026 126.196664,18.4666654 126.77,18.72 C127.343336,18.9733346 127.909997,19.1 128.47,19.1 C129.110003,19.1 129.586665,18.9533348 129.9,18.66 C130.213335,18.3666652 130.37,18.0333352 130.37,17.66 C130.37,17.4333322 130.33,17.2366675 130.25,17.07 C130.17,16.9033325 130.036668,16.7500007 129.85,16.61 C129.663332,16.4699993 129.420002,16.3400006 129.12,16.22 C128.819998,16.0999994 128.456669,15.9666674 128.03,15.82 C127.523331,15.6599992 127.026669,15.4833343 126.54,15.29 C126.053331,15.0966657 125.620002,14.8400016 125.24,14.52 C124.859998,14.1999984 124.553335,13.7966691 124.32,13.31 C124.086666,12.8233309 123.97,12.2066704 123.97,11.46 C123.97,10.7133296 124.093332,10.0366697 124.34,9.43 C124.586668,8.8233303 124.933331,8.3033355 125.38,7.87 C125.826669,7.4366645 126.37333,7.1000012 127.02,6.86 C127.66667,6.6199988 128.389996,6.5 129.19,6.5 C129.93667,6.5 130.716663,6.6033323 131.53,6.81 C132.343337,7.0166677 133.12333,7.319998 133.87,7.72 L132.31,10.78 Z M146.87,16.4 L145.11,11.38 L143.35,16.4 L146.87,16.4 Z M147.91,19.38 L142.31,19.38 L141.41,22 L137.23,22 L142.97,6.92 L147.25,6.92 L152.99,22 L148.81,22 L147.91,19.38 Z M160.63,6.92 L160.63,18.68 L165.33,18.68 L165.33,22 L156.71,22 L156.71,6.92 L160.63,6.92 Z M173.27,6.92 L173.27,22 L169.35,22 L169.35,6.92 L173.27,6.92 Z M186.71,10.78 C186.283331,10.4333316 185.856669,10.1766675 185.43,10.01 C185.003331,9.8433325 184.590002,9.76 184.19,9.76 C183.683331,9.76 183.270002,9.8799988 182.95,10.12 C182.629998,10.3600012 182.47,10.6733314 182.47,11.06 C182.47,11.326668 182.549999,11.5466658 182.71,11.72 C182.870001,11.8933342 183.079999,12.0433327 183.34,12.17 C183.600001,12.2966673 183.893332,12.4066662 184.22,12.5 C184.546668,12.5933338 184.869998,12.6933328 185.19,12.8 C186.470006,13.2266688 187.406664,13.7966631 188,14.51 C188.593336,15.2233369 188.89,16.1533276 188.89,17.3 C188.89,18.0733372 188.760001,18.7733302 188.5,19.4 C188.239999,20.0266698 187.860003,20.5633311 187.36,21.01 C186.859997,21.4566689 186.24667,21.8033321 185.52,22.05 C184.79333,22.2966679 183.970005,22.42 183.05,22.42 C181.143324,22.42 179.376675,21.853339 177.75,20.72 L179.43,17.56 C180.01667,18.0800026 180.596664,18.4666654 181.17,18.72 C181.743336,18.9733346 182.309997,19.1 182.87,19.1 C183.510003,19.1 183.986665,18.9533348 184.3,18.66 C184.613335,18.3666652 184.77,18.0333352 184.77,17.66 C184.77,17.4333322 184.73,17.2366675 184.65,17.07 C184.57,16.9033325 184.436668,16.7500007 184.25,16.61 C184.063332,16.4699993 183.820001,16.3400006 183.52,16.22 C183.219999,16.0999994 182.856669,15.9666674 182.43,15.82 C181.923331,15.6599992 181.426669,15.4833343 180.94,15.29 C180.453331,15.0966657 180.020002,14.8400016 179.64,14.52 C179.259998,14.1999984 178.953334,13.7966691 178.72,13.31 C178.486666,12.8233309 178.37,12.2066704 178.37,11.46 C178.37,10.7133296 178.493332,10.0366697 178.74,9.43 C178.986668,8.8233303 179.333331,8.3033355 179.78,7.87 C180.226669,7.4366645 180.77333,7.1000012 181.42,6.86 C182.06667,6.6199988 182.789996,6.5 183.59,6.5 C184.33667,6.5 185.116663,6.6033323 185.93,6.81 C186.743337,7.0166677 187.52333,7.319998 188.27,7.72 L186.71,10.78 Z M197.27,18.96 L198.13,18.96 C199.116672,18.96 199.823331,18.8333346 200.25,18.58 C200.676669,18.3266654 200.89,17.9200028 200.89,17.36 C200.89,16.7999972 200.676669,16.3933346 200.25,16.14 C199.823331,15.8866654 199.116672,15.76 198.13,15.76 L197.27,15.76 L197.27,18.96 Z M197.27,12.84 L197.99,12.84 C199.216673,12.84 199.83,12.3533382 199.83,11.38 C199.83,10.4066618 199.216673,9.92 197.99,9.92 L197.27,9.92 L197.27,12.84 Z M193.35,6.92 L199.19,6.92 C200.576674,6.92 201.629996,7.25333 202.35,7.92 C203.070004,8.58667 203.43,9.5466604 203.43,10.8 C203.43,11.5600038 203.293335,12.1899975 203.02,12.69 C202.746665,13.1900025 202.330003,13.6133316 201.77,13.96 C202.330003,14.0666672 202.806665,14.2299989 203.2,14.45 C203.593335,14.6700011 203.913332,14.9399984 204.16,15.26 C204.406668,15.5800016 204.583333,15.939998 204.69,16.34 C204.796667,16.740002 204.85,17.1666644 204.85,17.62 C204.85,18.3266702 204.726668,18.9533306 204.48,19.5 C204.233332,20.0466694 203.886669,20.5066648 203.44,20.88 C202.993331,21.2533352 202.450003,21.5333324 201.81,21.72 C201.169997,21.9066676 200.450004,22 199.65,22 L193.35,22 L193.35,6.92 Z M213.11,6.92 L213.11,15.12 C213.11,15.5600022 213.126666,16.0099977 213.16,16.47 C213.193333,16.9300023 213.293332,17.3466648 213.46,17.72 C213.626667,18.0933352 213.889998,18.3966655 214.25,18.63 C214.610002,18.8633345 215.116663,18.98 215.77,18.98 C216.423337,18.98 216.926665,18.8633345 217.28,18.63 C217.633335,18.3966655 217.896666,18.0933352 218.07,17.72 C218.243334,17.3466648 218.346666,16.9300023 218.38,16.47 C218.413333,16.0099977 218.43,15.5600022 218.43,15.12 L218.43,6.92 L222.33,6.92 L222.33,15.66 C222.33,18.0066784 221.793339,19.7199946 220.72,20.8 C219.646661,21.8800054 217.996678,22.42 215.77,22.42 C213.543322,22.42 211.890005,21.8800054 210.81,20.8 C209.729995,19.7199946 209.19,18.0066784 209.19,15.66 L209.19,6.92 L213.11,6.92 Z M231.41,13.66 L232.15,13.66 C232.923337,13.66 233.516665,13.5000016 233.93,13.18 C234.343335,12.8599984 234.55,12.400003 234.55,11.8 C234.55,11.199997 234.343335,10.7400016 233.93,10.42 C233.516665,10.0999984 232.923337,9.94 232.15,9.94 L231.41,9.94 L231.41,13.66 Z M240.03,22 L235.15,22 L231.41,16.2 L231.41,22 L227.49,22 L227.49,6.92 L233.59,6.92 C234.430004,6.92 235.16333,7.0433321 235.79,7.29 C236.41667,7.5366679 236.933331,7.8733312 237.34,8.3 C237.746669,8.7266688 238.053332,9.2199972 238.26,9.78 C238.466668,10.3400028 238.57,10.9399968 238.57,11.58 C238.57,12.7266724 238.293336,13.6566631 237.74,14.37 C237.186664,15.0833369 236.370005,15.5666654 235.29,15.82 L240.03,22 Z M247.31,14.76 L241.81,6.92 L246.49,6.92 L249.29,11.04 L252.07,6.92 L256.75,6.92 L251.23,14.76 L251.23,22 L247.31,22 L247.31,14.76 Z" transform="translate(-123 -6)"/>
</svg>
