<?xml version="1.0" encoding="UTF-8"?>
<svg width="264px" height="120px" viewBox="0 0 264 120" version="1.1" xmlns="http://www.w3.org/2000/svg" xmlns:xlink="http://www.w3.org/1999/xlink">
    <!-- Generator: Sketch 48.2 (47327) - http://www.bohemiancoding.com/sketch -->
    <title>Group 19</title>
    <desc>Created with Sketch.</desc>
    <defs></defs>
    <g id="102_Storytelling-Toronto---Home-Copy-2" stroke="none" stroke-width="1" fill="none" fill-rule="evenodd" transform="translate(-200.000000, -3472.000000)">
        <g id="Group-20" transform="translate(200.000000, 3472.000000)">
            <g id="Group-19">
                <g id="5a46fad33472ef00014b5433_a" transform="translate(13.000000, 15.000000)" fill-rule="nonzero">
                    <path d="M62.371134,72.0817996 L65,72.0817996 C66.6701031,72.0817996 67.628866,71.0347648 67.628866,69.6605317 L67.628866,69.6278119 C67.628866,68.0572597 66.5773196,67.206544 64.9381443,67.206544 L62.371134,67.206544 L59.0309278,67.206544 L59.0309278,64 L65.2164948,64 C68.8350515,64 71,66.2576687 71,69.5296524 L71,69.5623722 C71,73.2597137 68.2783505,75.190184 64.8762887,75.190184 L62.3402062,75.190184 L62.3402062,80 L59,80 L59,72.0817996 L62.371134,72.0817996 Z" id="Shape" fill="#2A3F7D"></path>
                    <path d="M80,72.0632411 L80,72 C80,67.6047431 83.5961538,64 88.5326923,64 C93.4692308,64 97,67.5731225 97,71.9683794 L97,72 C97,76.3952569 93.4038462,80 88.4673077,80 C83.5307692,80 80,76.458498 80,72.0632411 Z M93.3057692,72.0632411 L93.3057692,72 C93.3057692,69.3438735 91.2788462,67.1304348 88.4673077,67.1304348 C85.6230769,67.1304348 83.6615385,69.2806324 83.6615385,71.9367589 L83.6615385,71.9683794 C83.6615385,74.6245059 85.6884615,76.8379447 88.5,76.8379447 C91.3442308,76.8695652 93.3057692,74.7193676 93.3057692,72.0632411 Z" id="Shape" fill="#2A3F7D"></path>
                    <polygon id="Shape" fill="#2A3F7D" points="106 64 109.375 64 109.375 76.793456 117 76.793456 117 80 106 80"></polygon>
                    <polygon id="Shape" fill="#2A3F7D" points="130.214876 73.6850716 124 64 128.165289 64 132.033058 70.4130879 135.966942 64 140 64 133.785124 73.6196319 133.785124 80 130.214876 80 130.214876 73.6850716"></polygon>
                    <polygon id="Shape" fill="#2A3F7D" points="148 64 151.787755 64 156 70.7730061 160.212245 64 164 64 164 80 160.506122 80 160.506122 69.5623722 156 76.400818 155.902041 76.400818 151.461224 69.6278119 151.461224 80 148 80"></polygon>
                    <polygon id="Shape" fill="#2A3F7D" points="183.579961 73.346856 181.450867 68.1866126 179.321773 73.346856 178.077071 76.4300203 176.603083 80 173 80 179.878613 64 183.121387 64 190 80 186.298651 80 184.824663 76.4300203"></polygon>
                    <polygon id="Shape" fill="#2A3F7D" points="200.782716 67.2392638 196 67.2392638 196 64 209 64 209 67.2392638 204.217284 67.2392638 204.217284 80 200.782716 80"></polygon>
                    <polygon id="Shape" fill="#2A3F7D" points="218 64 221.383133 64 221.383133 70.3476483 227.616867 70.3476483 227.616867 64 231 64 231 80 227.616867 80 227.616867 73.5869121 221.383133 73.5869121 221.383133 80 218 80"></polygon>
                    <g id="Group" transform="translate(59.000000, 85.000000)" fill="#366FA0">
                        <polygon id="Shape" points="2.28733706 1.03125 2.28733706 4.84375 1.5141527 4.84375 1.5141527 1.03125 0.0322160149 1.03125 0.0322160149 0.34375 3.76927374 0.34375 3.76927374 1.03125"></polygon>
                        <polygon id="Shape" points="9.66480447 4.84375 9.66480447 2.96875 7.21638734 2.96875 7.21638734 4.84375 6.44320298 4.84375 6.44320298 0.34375 7.21638734 0.34375 7.21638734 2.3125 9.66480447 2.3125 9.66480447 0.34375 10.4379888 0.34375 10.4379888 4.84375"></polygon>
                        <polygon id="Shape" points="14.4327747 1.03125 14.4327747 2.25 16.6878957 2.25 16.6878957 2.9375 14.4327747 2.9375 14.4327747 4.1875 17.0422719 4.1875 17.0422719 4.875 13.6595903 4.875 13.6595903 0.375 16.9778399 0.375 16.9778399 1.0625 14.4327747 1.0625"></polygon>
                        <path d="M26.0949721,0.4375 C26.3849162,0.53125 26.6426443,0.625 26.8359404,0.78125 L26.5137803,1.4375 C26.2882682,1.28125 26.03054,1.1875 25.8050279,1.125 C25.5795158,1.0625 25.3540037,1.03125 25.1607076,1.03125 C24.9351955,1.03125 24.7418994,1.0625 24.6130354,1.15625 C24.4841713,1.25 24.4197393,1.34375 24.4197393,1.5 C24.4197393,1.625 24.4519553,1.75 24.5486034,1.84375 C24.6452514,1.9375 24.7418994,2 24.8707635,2.0625 C24.9996276,2.125 25.1929236,2.1875 25.4184358,2.25 C25.7405959,2.34375 25.998324,2.4375 26.1916201,2.53125 C26.3849162,2.625 26.5459963,2.75 26.7070764,2.9375 C26.8359404,3.125 26.9003724,3.34375 26.9003724,3.625 C26.9003724,3.875 26.8359404,4.125 26.6748603,4.3125 C26.5137803,4.5 26.3204842,4.65625 26.0627561,4.78125 C25.8050279,4.875 25.4828678,4.9375 25.1607076,4.9375 C24.8063315,4.9375 24.4519553,4.875 24.1297952,4.75 C23.807635,4.625 23.5176909,4.4375 23.2599628,4.21875 L23.6143389,3.5625 C23.839851,3.78125 24.0975791,3.9375 24.3875233,4.0625 C24.6774674,4.1875 24.9351955,4.21875 25.1929236,4.21875 C25.4828678,4.21875 25.6761639,4.15625 25.8372439,4.0625 C25.998324,3.96875 26.0627561,3.84375 26.0627561,3.65625 C26.0627561,3.53125 26.03054,3.40625 25.933892,3.3125 C25.8372439,3.21875 25.7405959,3.15625 25.5795158,3.09375 C25.4506518,3.03125 25.2573557,2.96875 25.0318436,2.90625 C24.7096834,2.8125 24.4519553,2.71875 24.2586592,2.65625 C24.0653631,2.5625 23.9042831,2.4375 23.775419,2.28125 C23.6465549,2.125 23.5821229,1.90625 23.5821229,1.625 C23.5821229,1.375 23.6465549,1.15625 23.807635,0.96875 C23.9364991,0.78125 24.1620112,0.625 24.3875233,0.53125 C24.6130354,0.4375 24.9351955,0.375 25.2573557,0.375 C25.5150838,0.3125 25.8050279,0.34375 26.0949721,0.4375 Z" id="Shape"></path>
                        <polygon id="Shape" points="30.6052142 1.03125 30.6052142 2.25 32.8603352 2.25 32.8603352 2.9375 30.6052142 2.9375 30.6052142 4.1875 33.2147114 4.1875 33.2147114 4.875 29.8320298 4.875 29.8320298 0.375 33.1502793 0.375 33.1502793 1.0625 30.6052142 1.0625"></polygon>
                        <path d="M39.1746741,0.5 C39.4968343,0.625 39.7545624,0.78125 39.9800745,1 L39.5290503,1.5625 C39.3679702,1.375 39.1746741,1.25 38.916946,1.15625 C38.6914339,1.0625 38.4659218,1 38.2081937,1 C37.9182495,1 37.6283054,1.0625 37.3705773,1.21875 C37.1128492,1.34375 36.9195531,1.5625 36.758473,1.78125 C36.5973929,2.03125 36.5329609,2.28125 36.5329609,2.59375 C36.5329609,2.875 36.5973929,3.15625 36.758473,3.40625 C36.9195531,3.65625 37.1128492,3.84375 37.3705773,3.96875 C37.6283054,4.125 37.9182495,4.1875 38.2081937,4.1875 C38.4337058,4.1875 38.6592179,4.125 38.88473,4.03125 C39.1102421,3.9375 39.3035382,3.8125 39.4968343,3.625 L39.9478585,4.125 C39.7223464,4.34375 39.4324022,4.53125 39.1102421,4.65625 C38.7880819,4.78125 38.4659218,4.84375 38.1437616,4.84375 C37.6927374,4.84375 37.2739292,4.75 36.9195531,4.53125 C36.5651769,4.34375 36.2752328,4.0625 36.0497207,3.71875 C35.8242086,3.375 35.7275605,2.96875 35.7275605,2.5625 C35.7275605,2.15625 35.8242086,1.75 36.0497207,1.40625 C36.2752328,1.0625 36.5651769,0.78125 36.9195531,0.59375 C37.3061453,0.40625 37.6927374,0.28125 38.1437616,0.28125 C38.5303538,0.3125 38.852514,0.375 39.1746741,0.5 Z" id="Shape"></path>
                        <path d="M46.4877095,4 C46.3266294,4.28125 46.1011173,4.5 45.7789572,4.65625 C45.489013,4.8125 45.1024209,4.875 44.7158287,4.875 C44.2970205,4.875 43.9426443,4.8125 43.6527002,4.65625 C43.3627561,4.5 43.1050279,4.28125 42.9439479,4 C42.7828678,3.71875 42.6862197,3.375 42.6862197,3 L42.6862197,0.375 L43.4594041,0.375 L43.4594041,3 C43.4594041,3.375 43.5560521,3.6875 43.7815642,3.875 C44.0070764,4.09375 44.2970205,4.1875 44.6836127,4.1875 C45.0702048,4.1875 45.360149,4.09375 45.5856611,3.875 C45.8111732,3.65625 45.9078212,3.375 45.9078212,2.96875 L45.9078212,0.34375 L46.6810056,0.34375 L46.6810056,2.96875 C46.7132216,3.375 46.6487896,3.71875 46.4877095,4 Z" id="Shape"></path>
                        <path d="M51.932216,3.5 C51.9,3.5 51.803352,3.5 51.7067039,3.5 L50.6113594,3.5 L50.6113594,4.84375 L49.838175,4.84375 L49.838175,0.34375 L51.7389199,0.34375 C52.3188082,0.34375 52.8020484,0.46875 53.1242086,0.75 C53.4463687,1.03125 53.6074488,1.40625 53.6074488,1.875 C53.6074488,2.25 53.5108007,2.53125 53.3497207,2.78125 C53.1886406,3.03125 52.9309125,3.21875 52.6409683,3.34375 L53.6718808,4.84375 L52.7698324,4.84375 L51.932216,3.5 Z M52.5443203,2.59375 C52.7376164,2.4375 52.8342644,2.21875 52.8342644,1.90625 C52.8342644,1.625 52.7376164,1.40625 52.5443203,1.25 C52.3510242,1.09375 52.0610801,1.03125 51.7067039,1.03125 L50.6113594,1.03125 L50.6113594,2.8125 L51.7067039,2.8125 C52.0610801,2.8125 52.3510242,2.75 52.5443203,2.59375 Z" id="Shape"></path>
                        <polygon id="Shape" points="56.6035382 4.84375 56.6035382 0.34375 57.3767225 0.34375 57.3767225 4.84375"></polygon>
                        <polygon id="Shape" points="62.3057728 1.03125 62.3057728 4.84375 61.5325885 4.84375 61.5325885 1.03125 60.0506518 1.03125 60.0506518 0.34375 63.7877095 0.34375 63.7877095 1.03125"></polygon>
                        <polygon id="Shape" points="66.4294227 4.84375 66.4294227 0.34375 67.2026071 0.34375 67.2026071 4.84375"></polygon>
                        <polygon id="Shape" points="71.1973929 1.03125 71.1973929 2.25 73.452514 2.25 73.452514 2.9375 71.1973929 2.9375 71.1973929 4.1875 73.8068901 4.1875 73.8068901 4.875 70.4242086 4.875 70.4242086 0.375 73.7424581 0.375 73.7424581 1.0625 71.1973929 1.0625"></polygon>
                        <path d="M79.1547486,0.4375 C79.4446927,0.53125 79.7024209,0.625 79.8957169,0.78125 L79.5735568,1.4375 C79.3480447,1.28125 79.0903166,1.1875 78.8648045,1.125 C78.6392924,1.0625 78.4137803,1.03125 78.2204842,1.03125 C77.9949721,1.03125 77.801676,1.0625 77.6728119,1.15625 C77.5439479,1.25 77.4795158,1.34375 77.4795158,1.5 C77.4795158,1.625 77.5117318,1.75 77.6083799,1.84375 C77.7050279,1.9375 77.801676,2 77.93054,2.0625 C78.0594041,2.125 78.2527002,2.1875 78.4782123,2.25 C78.8003724,2.34375 79.0581006,2.4375 79.2513966,2.53125 C79.4446927,2.625 79.6057728,2.75 79.7668529,2.9375 C79.8957169,3.125 79.960149,3.34375 79.960149,3.625 C79.960149,3.875 79.8957169,4.125 79.7346369,4.3125 C79.5735568,4.5 79.3802607,4.65625 79.1225326,4.78125 C78.8648045,4.90625 78.5426443,4.9375 78.2204842,4.9375 C77.866108,4.9375 77.5117318,4.875 77.1895717,4.75 C76.8674115,4.625 76.5774674,4.4375 76.3197393,4.21875 L76.6741155,3.5625 C76.8996276,3.78125 77.1573557,3.9375 77.4472998,4.0625 C77.7372439,4.1875 77.9949721,4.21875 78.2527002,4.21875 C78.5426443,4.21875 78.7359404,4.15625 78.8970205,4.0625 C79.0581006,3.96875 79.1225326,3.84375 79.1225326,3.65625 C79.1225326,3.53125 79.0903166,3.40625 78.9936685,3.3125 C78.8970205,3.21875 78.8003724,3.15625 78.6392924,3.09375 C78.5104283,3.03125 78.3171322,2.96875 78.0916201,2.90625 C77.76946,2.8125 77.5117318,2.71875 77.3184358,2.65625 C77.1251397,2.5625 76.9640596,2.4375 76.8351955,2.28125 C76.7063315,2.125 76.6418994,1.90625 76.6418994,1.625 C76.6418994,1.375 76.7063315,1.15625 76.8674115,0.96875 C77.0284916,0.78125 77.2217877,0.625 77.4472998,0.53125 C77.6728119,0.4375 77.9949721,0.375 78.3171322,0.375 C78.6070764,0.3125 78.8970205,0.34375 79.1547486,0.4375 Z" id="Shape"></path>
                        <polygon id="Shape" points="88.2718808 1.03125 88.2718808 4.84375 87.4986965 4.84375 87.4986965 1.03125 86.0167598 1.03125 86.0167598 0.34375 89.7538175 0.34375 89.7538175 1.03125"></polygon>
                        <path d="M95.4560521,0.625 C95.8426443,0.8125 96.1325885,1.09375 96.3581006,1.4375 C96.5836127,1.78125 96.6802607,2.15625 96.6802607,2.59375 C96.6802607,3.03125 96.5836127,3.40625 96.3581006,3.75 C96.1325885,4.09375 95.8426443,4.375 95.4560521,4.5625 C95.06946,4.75 94.6506518,4.875 94.1996276,4.875 C93.7486034,4.875 93.3297952,4.78125 92.943203,4.5625 C92.5566108,4.375 92.2666667,4.09375 92.0411546,3.75 C91.8156425,3.40625 91.7189944,3 91.7189944,2.59375 C91.7189944,2.15625 91.8156425,1.78125 92.0411546,1.4375 C92.2666667,1.09375 92.5566108,0.8125 92.943203,0.625 C93.3297952,0.4375 93.7486034,0.3125 94.1996276,0.3125 C94.6506518,0.3125 95.06946,0.4375 95.4560521,0.625 Z M93.3942272,1.21875 C93.1364991,1.375 92.943203,1.5625 92.7821229,1.78125 C92.6210428,2.03125 92.5566108,2.28125 92.5566108,2.59375 C92.5566108,2.875 92.6210428,3.15625 92.7821229,3.40625 C92.943203,3.65625 93.1364991,3.84375 93.3942272,4 C93.6519553,4.15625 93.9096834,4.21875 94.2318436,4.21875 C94.5217877,4.21875 94.8117318,4.15625 95.06946,4 C95.3271881,3.84375 95.5204842,3.65625 95.6815642,3.40625 C95.8426443,3.15625 95.9070764,2.875 95.9070764,2.59375 C95.9070764,2.3125 95.8426443,2.03125 95.6815642,1.78125 C95.5204842,1.53125 95.3271881,1.34375 95.06946,1.21875 C94.8117318,1.0625 94.5540037,1 94.2318436,1 C93.9096834,1 93.6519553,1.09375 93.3942272,1.21875 Z" id="Shape"></path>
                        <polygon id="Shape" points="101.061639 2.875 100.256238 3.71875 100.256238 4.875 99.483054 4.875 99.483054 0.375 100.256238 0.375 100.256238 2.71875 102.479143 0.375 103.413408 0.375 101.609311 2.3125 103.542272 4.90625 102.608007 4.90625"></polygon>
                        <polygon id="Shape" points="107.021601 1.03125 107.021601 2.25 109.276723 2.25 109.276723 2.9375 107.021601 2.9375 107.021601 4.1875 109.631099 4.1875 109.631099 4.875 106.248417 4.875 106.248417 0.375 109.566667 0.375 109.566667 1.0625 107.021601 1.0625"></polygon>
                        <polygon id="Shape" points="115.84879 4.84375 113.368156 1.625 113.368156 4.84375 112.594972 4.84375 112.594972 0.34375 113.368156 0.34375 115.84879 3.59375 115.84879 0.34375 116.621974 0.34375 116.621974 4.84375"></polygon>
                        <path d="M126.737803,0.75 C127.059963,1.03125 127.221043,1.40625 127.221043,1.875 C127.221043,2.375 127.059963,2.78125 126.737803,3.0625 C126.415642,3.34375 125.964618,3.46875 125.38473,3.46875 L124.321601,3.46875 L124.321601,4.8125 L123.548417,4.8125 L123.548417,0.3125 L125.416946,0.3125 C125.964618,0.34375 126.415642,0.46875 126.737803,0.75 Z M124.321601,2.8125 L125.352514,2.8125 C125.70689,2.8125 125.996834,2.75 126.19013,2.59375 C126.383426,2.4375 126.480074,2.21875 126.480074,1.90625 C126.480074,1.625 126.383426,1.40625 126.19013,1.25 C125.996834,1.09375 125.70689,1.03125 125.352514,1.03125 L124.321601,1.03125 L124.321601,2.8125 Z" id="Shape"></path>
                        <polygon id="Shape" points="132.794413 4.15625 132.794413 4.84375 129.99162 4.84375 129.99162 0.34375 130.764804 0.34375 130.764804 4.15625"></polygon>
                        <path d="M136.209311,3.84375 L135.758287,4.875 L134.952886,4.875 L137.014711,0.375 L137.820112,0.375 L139.849721,4.875 L139.012104,4.875 L138.56108,3.84375 L136.209311,3.84375 Z M137.401304,1.15625 L136.531471,3.15625 L138.271136,3.15625 L137.401304,1.15625 Z" id="Shape"></path>
                        <polygon id="Shape" points="143.683426 1.03125 143.683426 4.84375 142.910242 4.84375 142.910242 1.03125 141.428305 1.03125 141.428305 0.34375 145.165363 0.34375 145.165363 1.03125"></polygon>
                        <polygon id="Shape" points="148.612477 1.03125 148.612477 2.34375 150.706518 2.34375 150.706518 3.03125 148.612477 3.03125 148.612477 4.875 147.839292 4.875 147.839292 0.375 150.964246 0.375 150.964246 1.0625 148.612477 1.0625"></polygon>
                        <path d="M156.956425,0.625 C157.343017,0.8125 157.632961,1.09375 157.858473,1.4375 C158.083985,1.78125 158.180633,2.15625 158.180633,2.59375 C158.180633,3.03125 158.083985,3.40625 157.858473,3.75 C157.632961,4.09375 157.343017,4.375 156.956425,4.5625 C156.569832,4.75 156.151024,4.875 155.7,4.875 C155.248976,4.875 154.830168,4.78125 154.443575,4.5625 C154.056983,4.375 153.767039,4.09375 153.541527,3.75 C153.316015,3.40625 153.219367,3 153.219367,2.59375 C153.219367,2.15625 153.316015,1.78125 153.541527,1.4375 C153.767039,1.09375 154.056983,0.8125 154.443575,0.625 C154.830168,0.4375 155.248976,0.3125 155.7,0.3125 C156.151024,0.3125 156.569832,0.4375 156.956425,0.625 Z M154.862384,1.21875 C154.604655,1.375 154.411359,1.5625 154.250279,1.78125 C154.089199,2.03125 154.024767,2.28125 154.024767,2.59375 C154.024767,2.875 154.089199,3.15625 154.250279,3.40625 C154.411359,3.65625 154.604655,3.84375 154.862384,4 C155.120112,4.15625 155.37784,4.21875 155.7,4.21875 C155.989944,4.21875 156.279888,4.15625 156.537616,4 C156.795345,3.84375 156.988641,3.65625 157.149721,3.40625 C157.310801,3.15625 157.375233,2.875 157.375233,2.59375 C157.375233,2.3125 157.310801,2.03125 157.149721,1.78125 C156.988641,1.53125 156.795345,1.34375 156.537616,1.21875 C156.279888,1.0625 156.02216,1 155.7,1 C155.410056,1 155.120112,1.09375 154.862384,1.21875 Z" id="Shape"></path>
                        <path d="M163.077467,3.5 C163.045251,3.5 162.948603,3.5 162.851955,3.5 L161.756611,3.5 L161.756611,4.84375 L160.983426,4.84375 L160.983426,0.34375 L162.884171,0.34375 C163.46406,0.34375 163.9473,0.46875 164.26946,0.75 C164.59162,1.03125 164.7527,1.40625 164.7527,1.875 C164.7527,2.25 164.656052,2.53125 164.494972,2.78125 C164.333892,3.03125 164.076164,3.21875 163.78622,3.34375 L164.817132,4.84375 L163.915084,4.84375 L163.077467,3.5 Z M163.689572,2.59375 C163.882868,2.4375 163.979516,2.21875 163.979516,1.90625 C163.979516,1.625 163.882868,1.40625 163.689572,1.25 C163.496276,1.09375 163.206331,1.03125 162.851955,1.03125 L161.756611,1.03125 L161.756611,2.8125 L162.851955,2.8125 C163.238547,2.8125 163.496276,2.75 163.689572,2.59375 Z" id="Shape"></path>
                        <polygon id="Shape" points="171.969088 4.84375 171.969088 1.46875 170.487151 4.375 169.971695 4.375 168.521974 1.46875 168.521974 4.84375 167.781006 4.84375 167.781006 0.34375 168.71527 0.34375 170.261639 3.34375 171.775791 0.34375 172.710056 0.34375 172.710056 4.84375"></polygon>
                    </g>
                    <polygon id="Shape" fill="#313A62" points="143 9.55242967 142.710787 4.72963098 141.296854 8.74862989 133.327416 15.725612 124.201124 17.1402996 121.469663 14.5038363 129.439101 3.44355133 137.665618 1 128.796404 1.19291195 115.910337 10.5491414 103.82764 9.68103763 115.942472 17.9762514 121.919551 22.1881622 103.731236 9.39166971 86.8283146 1 86.8283146 1 76.8022472 2.99342346 45.5350562 29.0365364 30.4959551 33.891487 24.2939326 40.2254293 13.1752809 40.3540373 7.71235955 50.5783705 0 52.7968579 7.29460674 53.8257216 14.0750562 44.6624041 24.5188764 46.8487395 24.3582022 56.6229448 19.1202247 70.737669 16.1316854 83.7913774 12.9182022 89 21.0804494 87.1994885 20.1485393 81.8622579 27.0575281 67.5224699 40.4577528 62.1530873 45.6314607 53.5685057 54.3721348 47.1702594 71.692809 49.7424187 89.2062921 42.0580928 86.2177528 54.1793935 78.4411236 54.8867373 76.2238202 64.8860066 82.9078652 60.4168798 93.8979775 55.6262331 102.542247 42.1223968 103.056404 35.6919985 107.715955 40.5147972 121.180449 48.9386189 128.796404 45.3375959 128.346517 27.4289368 126.161348 20.5162587 136.155281 18.0084034"></polygon>
                    <g id="Group">
                        <g id="Shape">
                            <polygon fill="#3F4B80" points="121.566067 14.2528986 115.685393 9.96413043 129.439101 2.99891304"></polygon>
                            <polygon fill="#313A62" points="86.6033708 0.128985507 103.731236 8.96449275 105.787865 23.2173913"></polygon>
                            <polygon fill="#3F4B80" points="105.787865 23.2173913 103.056404 35.342029 86.6033708 0.128985507"></polygon>
                            <polygon fill="#4B5897" points="103.056404 35.342029 76.834382 2.12826087 86.6355056 0.193478261"></polygon>
                            <polygon fill="#5161A4" points="103.056404 35.342029 74.6170787 24.1847826 76.834382 2.12826087"></polygon>
                            <polygon fill="#4B5897" points="76.834382 2.12826087 74.6170787 24.1847826 45.3101124 28.3123188"></polygon>
                            <polygon fill="#4B5897" points="103.056404 35.342029 71.692809 43.8873188 74.6170787 24.1847826"></polygon>
                            <polygon fill="#3F4B80" points="71.692809 43.8873188 103.056404 35.342029 88.9170787 41.9525362"></polygon>
                            <polygon fill="#3F4B80" points="54.3721348 46.8539855 71.692809 43.8873188 71.9820225 49.8206522"></polygon>
                            <polygon fill="#313A62" points="71.9820225 49.8206522 71.692809 43.8873188 88.9170787 41.9525362"></polygon>
                            <polygon fill="#3F4B80" points="45.3101124 28.3123188 74.6170787 24.1847826 71.692809 43.8873188"></polygon>
                            <polygon fill="#4B5897" points="45.3101124 28.3123188 71.692809 43.8873188 54.3721348 46.8539855"></polygon>
                            <polygon fill="#313A62" points="45.3101124 28.3123188 54.3721348 46.8539855 45.6314607 53.2710145"></polygon>
                            <polygon fill="#5161A4" points="30.4316854 33.3105072 33.934382 54.4318841 24.2939326 39.8887681"></polygon>
                            <polygon fill="#313A62" points="13.1752809 40.0177536 24.2939326 39.8887681 24.3582022 46.6927536"></polygon>
                            <polygon fill="#3F4B80" points="14.0750562 44.6289855 13.1752809 40.0177536 24.3582022 46.6927536"></polygon>
                            <polygon fill="#4B5897" points="14.0750562 44.6289855 7.71235955 50.2721014 13.1752809 40.0177536"></polygon>
                            <polygon fill="#313A62" points="7.71235955 50.2721014 7.26247191 53.6902174 0 52.4971014"></polygon>
                            <polygon fill="#5161A4" points="7.71235955 50.2721014 14.0750562 44.6289855 7.26247191 53.6902174"></polygon>
                            <polygon fill="#3F4B80" points="24.2939326 39.8887681 33.934382 54.4318841 24.3582022 56.3344203"></polygon>
                            <polygon fill="#3F4B80" points="27.1217978 67.1692029 20.1485393 81.6478261 19.1202247 70.4905797"></polygon>
                            <polygon fill="#1F243E" points="19.1202247 70.4905797 20.1485393 81.6478261 16.1316854 83.5826087"></polygon>
                            <polygon fill="#3F4B80" points="20.1485393 81.6478261 21.2089888 87.0974638 12.9182022 88.8065217"></polygon>
                            <polygon fill="#313A62" points="16.1316854 83.5826087 20.1485393 81.6478261 12.9182022 88.8065217"></polygon>
                            <polygon fill="#313A62" points="24.3582022 56.3344203 33.934382 54.4318841 19.1202247 70.4905797"></polygon>
                            <polygon fill="#4B5897" points="33.934382 54.4318841 40.4577528 61.8807971 19.1202247 70.4905797"></polygon>
                            <polygon fill="#4B5897" points="30.4316854 33.3105072 45.3101124 28.3123188 33.934382 54.4318841"></polygon>
                            <polygon fill="#3F4B80" points="33.934382 54.4318841 45.3101124 28.3123188 45.6314607 53.2710145"></polygon>
                            <polygon fill="#313A62" points="40.4577528 61.8807971 33.934382 54.4318841 45.6314607 53.2710145"></polygon>
                            <polygon fill="#4B5897" points="88.9170787 41.9525362 102.702921 41.8557971 93.8979775 55.3347826"></polygon>
                            <polygon fill="#5161A4" points="88.9170787 41.9525362 103.056404 35.342029 102.702921 41.8557971"></polygon>
                            <polygon fill="#3F4B80" points="86.2177528 53.8836957 88.9170787 41.9525362 93.8979775 55.3347826"></polygon>
                            <polygon fill="#4B5897" points="82.9078652 60.1394928 86.2177528 53.8836957 93.8979775 55.3347826"></polygon>
                            <polygon fill="#3F4B80" points="76.2238202 64.6217391 78.3125843 54.3673913 86.2177528 53.8836957"></polygon>
                            <polygon fill="#313A62" points="76.2238202 64.6217391 86.2177528 53.8836957 82.9078652 60.1394928"></polygon>
                            <polygon fill="#495692" points="115.685393 9.96413043 128.796404 0.741666667 129.439101 2.99891304"></polygon>
                            <polygon fill="#5D6CAC" points="128.796404 0.741666667 139.529438 0.193478261 129.439101 2.99891304"></polygon>
                            <polygon fill="#4F60A3" points="121.919551 21.7985507 115.942472 17.5742754 136.155281 17.6065217"></polygon>
                            <polygon fill="#495692" points="115.942472 17.5742754 133.327416 15.317029 136.155281 17.6065217"></polygon>
                            <polygon fill="#3F4B80" points="133.327416 15.317029 141.296854 8.31956522 136.155281 17.6065217"></polygon>
                            <polygon fill="#4F60A3" points="136.155281 17.6065217 141.296854 8.31956522 143 9.12572464"></polygon>
                            <polygon fill="#313A62" points="141.296854 8.31956522 142.710787 4.28876812 143 9.12572464"></polygon>
                        </g>
                        <polygon id="Shape" fill="#313A62" points="105.787865 23.2173913 107.715955 40.1789855 103.056404 35.342029"></polygon>
                        <polygon id="Shape" fill="#3F4B80" points="107.715955 40.1789855 105.787865 23.2173913 121.919551 21.7985507"></polygon>
                        <polygon id="Shape" fill="#4B5897" points="121.919551 21.7985507 105.787865 23.2173913 103.731236 8.96449275"></polygon>
                        <polygon id="Shape" fill="#313A62" points="121.566067 14.2528986 124.168989 16.6068841 115.942472 17.5742754"></polygon>
                        <polygon id="Shape" fill="#3F4B80" points="103.731236 8.96449275 121.566067 14.2528986 115.942472 17.5742754"></polygon>
                        <polygon id="Shape" fill="#313A62" points="103.731236 8.96449275 115.685393 9.96413043 121.566067 14.2528986"></polygon>
                        <polygon id="Shape" fill="#3F4B80" points="121.180449 48.6275362 121.919551 21.7985507 128.346517 27.0547101"></polygon>
                        <polygon id="Shape" fill="#495692" points="121.180449 48.6275362 121.919551 21.7985507 107.715955 40.1789855"></polygon>
                        <polygon id="Shape" fill="#313A62" points="128.346517 27.0547101 126.289888 20.3474638 121.919551 21.7985507"></polygon>
                        <polygon id="Shape" fill="#313A62" points="129.214157 44.9192029 121.180449 48.6275362 128.346517 27.0547101"></polygon>
                    </g>
                </g>
                <rect id="Rectangle-8" fill="#FFFFFF" style="mix-blend-mode: color;" x="0" y="0" width="264" height="120"></rect>
            </g>
        </g>
    </g>
</svg>